<svg width="60" height="60" viewBox="0 0 60 60" fill="none" xmlns="http://www.w3.org/2000/svg">
<g clip-path="url(#clip0_844_1592)">
<path d="M18.354 25.2113L30.0071 13.5629L41.6649 25.2208L48.4416 18.4393L30.0071 0L11.5725 18.4346L18.354 25.2113Z" fill="#F3BA2F"/>
<path d="M0 30.0022L6.77672 23.2207L13.5582 30.0022L6.77672 36.7789L0 30.0022Z" fill="#F3BA2F"/>
<path d="M18.354 34.7889L30.0071 46.442L41.6649 34.7842L48.4464 41.5562L30.0118 59.9955L11.5725 41.5704L18.354 34.7889Z" fill="#F3BA2F"/>
<path d="M46.4419 30.0022L53.2186 23.2207L60.0001 29.9974L53.2186 36.7836L46.4419 30.0022Z" fill="#F3BA2F"/>
<path d="M36.8833 29.9977L30.0071 23.1167L24.9222 28.2016L24.3346 28.7845L23.1309 29.9882L30.0071 36.8597L36.8833 30.0024V29.9977Z" fill="#F3BA2F"/>
</g>
<defs>
<clipPath id="clip0_844_1592">
<rect width="60" height="60" fill="white"/>
</clipPath>
</defs>
</svg>
