<svg width="83" height="83" viewBox="0 0 83 83" fill="none" xmlns="http://www.w3.org/2000/svg">
<path d="M41.5 5.1875C21.4471 5.1875 5.1875 21.4471 5.1875 41.5C5.1875 61.5529 21.4471 77.8125 41.5 77.8125C61.5529 77.8125 77.8125 61.5529 77.8125 41.5C77.8125 21.4471 61.5529 5.1875 41.5 5.1875ZM41.5 71.6523C24.8514 71.6523 11.3477 58.1486 11.3477 41.5C11.3477 24.8514 24.8514 11.3477 41.5 11.3477C58.1486 11.3477 71.6523 24.8514 71.6523 41.5C71.6523 58.1486 58.1486 71.6523 41.5 71.6523ZM41.9539 28.4745C46.2498 28.4745 49.1678 31.2142 49.492 35.2345C49.5163 35.5749 49.8 35.8343 50.1404 35.8343H54.7362C54.947 35.8343 55.1172 35.6641 55.1172 35.4533C55.1172 28.4259 49.573 23.5059 41.9296 23.5059C33.0217 23.5059 27.8828 29.5201 27.8828 39.4574V43.6966C27.8828 53.5609 33.0217 59.4941 41.9296 59.4941C49.5487 59.4941 55.1172 54.7281 55.1172 48.033C55.1172 47.8223 54.947 47.6521 54.7362 47.6521H50.1323C49.7919 47.6521 49.5163 47.9114 49.4839 48.2438C49.1435 51.9804 46.2336 54.5498 41.9458 54.5498C36.6529 54.5498 33.6701 50.6673 33.6701 43.7209V39.4574C33.6782 32.4057 36.6691 28.4745 41.9539 28.4745Z" fill="url(#paint0_linear_738_352)"/>
<defs>
<linearGradient id="paint0_linear_738_352" x1="41.5" y1="5.1875" x2="41.5" y2="77.8125" gradientUnits="userSpaceOnUse">
<stop stop-color="#FF00E5"/>
<stop offset="1" stop-color="#7000FF"/>
</linearGradient>
</defs>
</svg>
