<svg width="34" height="34" viewBox="0 0 34 34" fill="none" xmlns="http://www.w3.org/2000/svg">
<path d="M0.125 3.24568C0.125 2.03649 1.55367 1.39493 2.45743 2.19827L33.4046 29.7069C33.7038 29.9728 33.875 30.354 33.875 30.7543C33.875 31.9635 32.4463 32.6051 31.5426 31.8017L0.595358 4.2931C0.296177 4.02716 0.125 3.64597 0.125 3.24568Z" fill="url(#paint0_linear_863_1951)"/>
<path d="M0.125 30.7543C0.125 30.354 0.296177 29.9728 0.595358 29.7069L31.5426 2.19827C32.4463 1.39493 33.875 2.03649 33.875 3.24568C33.875 3.64597 33.7038 4.02716 33.4046 4.2931L2.45743 31.8017C1.55367 32.6051 0.125 31.9635 0.125 30.7543Z" fill="url(#paint1_linear_863_1951)"/>
<defs>
<linearGradient id="paint0_linear_863_1951" x1="-2.50487" y1="0.124997" x2="70.7825" y2="10.2576" gradientUnits="userSpaceOnUse">
<stop stop-color="#FF00E5"/>
<stop offset="1" stop-color="#7000FF"/>
</linearGradient>
<linearGradient id="paint1_linear_863_1951" x1="-2.50487" y1="0.124997" x2="70.7825" y2="10.2576" gradientUnits="userSpaceOnUse">
<stop stop-color="#FF00E5"/>
<stop offset="1" stop-color="#7000FF"/>
</linearGradient>
</defs>
</svg>
