<svg width="60" height="48" viewBox="0 0 60 48" fill="none" xmlns="http://www.w3.org/2000/svg">
<path d="M50.8257 4.01999C46.9418 2.142 42.7889 0.777155 38.4472 0C37.914 0.996285 37.2911 2.33631 36.8616 3.40229C32.2463 2.68498 27.6734 2.68498 23.1429 3.40229C22.7135 2.33631 22.0764 0.996285 21.5384 0C17.192 0.777155 13.0344 2.14701 9.15048 4.02993C1.31661 16.2641 -0.807028 28.1943 0.254792 39.9552C5.45063 43.9651 10.486 46.4011 15.4364 47.9951C16.6587 46.2566 17.7488 44.4085 18.6879 42.4608C16.8994 41.7585 15.1863 40.8917 13.5677 39.8855C13.9971 39.5567 14.4171 39.213 14.823 38.8593C24.6955 43.6314 35.4223 43.6314 45.1768 38.8593C45.5874 39.213 46.0074 39.5567 46.4321 39.8855C44.8087 40.8966 43.091 41.7634 41.3024 42.4658C42.2415 44.4085 43.3269 46.2616 44.5539 48C49.5091 46.406 54.5491 43.9702 59.745 39.9552C60.9909 26.3213 57.6167 14.5007 50.8257 4.01999ZM20.0329 32.7224C17.0693 32.7224 14.6389 29.863 14.6389 26.3811C14.6389 22.8992 17.0174 20.0349 20.0329 20.0349C23.0486 20.0349 25.4789 22.8942 25.427 26.3811C25.4317 29.863 23.0486 32.7224 20.0329 32.7224ZM39.9669 32.7224C37.0032 32.7224 34.5728 29.863 34.5728 26.3811C34.5728 22.8992 36.9512 20.0349 39.9669 20.0349C42.9824 20.0349 45.4128 22.8942 45.3609 26.3811C45.3609 29.863 42.9824 32.7224 39.9669 32.7224Z" fill="url(#paint0_linear_848_2651)"/>
<defs>
<linearGradient id="paint0_linear_848_2651" x1="-10.7792" y1="-6.13736e-06" x2="75.0634" y2="15.3712" gradientUnits="userSpaceOnUse">
<stop stop-color="#FF00E5"/>
<stop offset="1" stop-color="#7000FF"/>
</linearGradient>
</defs>
</svg>
