<svg width="84" height="84" viewBox="0 0 84 84" fill="none" xmlns="http://www.w3.org/2000/svg">
<g clip-path="url(#clip0_279_1750)">
<path d="M52 0V21H73L52 0ZM46.75 21V0H17.875C13.5257 0 10 3.5257 10 7.875V76.125C10 80.4727 13.5257 84 17.875 84H65.125C69.4743 84 73 80.4743 73 76.125V26.25H52.1477C49.0961 26.25 46.75 23.9039 46.75 21ZM20.5 11.8125C20.5 11.0955 21.0955 10.5 21.8125 10.5H34.9375C35.6594 10.5 36.25 11.0955 36.25 11.8125V14.4375C36.25 15.1561 35.6594 15.75 34.9375 15.75H21.8125C21.0955 15.75 20.5 15.1561 20.5 14.4375V11.8125ZM20.5 22.3125C20.5 21.5906 21.0955 21 21.8125 21H34.9375C35.6594 21 36.25 21.5906 36.25 22.3125V24.9375C36.25 25.6594 35.6594 26.25 34.9375 26.25H21.8125C21.0955 26.25 20.5 25.6594 20.5 24.9375V22.3125ZM59.875 63C61.3311 63 62.5 64.1689 62.5 65.625C62.5 67.0811 61.3352 68.25 59.875 68.25H52.123C49.4357 68.25 46.9961 66.7529 45.7853 64.3322C45.3136 63.3683 44.4728 63.2658 44.125 63.2658C43.7772 63.2658 42.9355 63.3683 42.4844 64.2707L41.2129 66.7939C40.7781 67.6922 39.7117 68.25 38.875 68.25H38.6945C37.6281 68.168 36.7258 67.4707 36.3977 66.4453L33.625 58.1766L31.8859 63.4102C30.918 66.2977 28.2109 68.25 25.1561 68.25H23.125C21.6698 68.25 20.5 67.0852 20.5 65.625C20.5 64.1648 21.6698 63 23.125 63H25.1561C25.9559 63 26.6532 62.4873 26.8984 61.749L29.8926 52.7863C30.4258 51.1711 31.9188 50.0883 33.625 50.0883C35.3312 50.0883 36.8242 51.1752 37.3574 52.7953L39.6346 59.6252C42.8748 56.9592 48.5153 58.0256 50.4627 61.9418C50.7909 62.598 51.4471 63.0082 52.123 63.0082H59.875V63Z" fill="url(#paint0_linear_279_1750)"/>
</g>
<rect x="0.5" y="0.5" width="83" height="83" stroke="url(#paint1_linear_279_1750)"/>
<defs>
<linearGradient id="paint0_linear_279_1750" x1="41.5" y1="0" x2="41.5" y2="84" gradientUnits="userSpaceOnUse">
<stop stop-color="#FF00E5"/>
<stop offset="1" stop-color="#7000FF"/>
</linearGradient>
<linearGradient id="paint1_linear_279_1750" x1="42" y1="0" x2="42" y2="84" gradientUnits="userSpaceOnUse">
<stop/>
<stop offset="1" stop-opacity="0"/>
</linearGradient>
<clipPath id="clip0_279_1750">
<rect width="84" height="84" fill="white"/>
</clipPath>
</defs>
</svg>
