<svg width="90" height="90" viewBox="0 0 90 90" fill="none" xmlns="http://www.w3.org/2000/svg">
<path d="M45 56.25C38.1 56.25 37.5 53.025 37.5 52.5H30C30 55.95 32.475 62.0625 41.25 63.45V67.5H48.75V63.45C56.25 62.175 60 57.3375 60 52.5C60 48.3 58.05 41.25 45 41.25C37.5 41.25 37.5 38.8875 37.5 37.5C37.5 36.1125 40.125 33.75 45 33.75C49.875 33.75 50.2125 36.15 50.25 37.5H57.75C57.6993 34.9453 56.7805 32.484 55.1447 30.5211C53.5089 28.5581 51.2536 27.2105 48.75 26.7V22.5H41.25V26.5875C33.75 27.825 30 32.6625 30 37.5C30 41.7 31.95 48.75 45 48.75C52.5 48.75 52.5 51.3 52.5 52.5C52.5 53.7 50.175 56.25 45 56.25Z" fill="url(#paint0_linear_279_1830)"/>
<path d="M18.75 7.5H7.5V15H15V78.75C15 79.7446 15.3951 80.6984 16.0984 81.4017C16.8016 82.1049 17.7554 82.5 18.75 82.5H71.25C72.2446 82.5 73.1984 82.1049 73.9017 81.4017C74.6049 80.6984 75 79.7446 75 78.75V15H82.5V7.5H18.75ZM67.5 75H22.5V15H67.5V75Z" fill="url(#paint1_linear_279_1830)"/>
<defs>
<linearGradient id="paint0_linear_279_1830" x1="45" y1="22.5" x2="45" y2="67.5" gradientUnits="userSpaceOnUse">
<stop stop-color="#FF00E5"/>
<stop offset="1" stop-color="#7000FF"/>
</linearGradient>
<linearGradient id="paint1_linear_279_1830" x1="45" y1="7.5" x2="45" y2="82.5" gradientUnits="userSpaceOnUse">
<stop stop-color="#FF00E5"/>
<stop offset="1" stop-color="#7000FF"/>
</linearGradient>
</defs>
</svg>
