<svg width="33" height="32" viewBox="0 0 33 32" fill="none" xmlns="http://www.w3.org/2000/svg">
<path fill-rule="evenodd" clip-rule="evenodd" d="M32.5 16C32.5 24.8366 25.3366 32 16.5 32C7.66344 32 0.5 24.8366 0.5 16C0.5 7.16344 7.66344 0 16.5 0C25.3366 0 32.5 7.16344 32.5 16ZM16.5 30.2222C24.3547 30.2222 30.7222 23.8547 30.7222 16C30.7222 8.14528 24.3547 1.77778 16.5 1.77778C8.64528 1.77778 2.27778 8.14528 2.27778 16C2.27778 23.8547 8.64528 30.2222 16.5 30.2222Z" fill="url(#paint0_linear_844_1404)"/>
<path d="M25.2783 16.1981V22H21.8821V16.5519C21.8821 15.2075 21.3868 14.2877 20.184 14.2877C19.2642 14.2877 18.6981 14.9245 18.4858 15.4906C18.4151 15.7028 18.3443 15.9858 18.3443 16.3396V22H14.9481C14.9481 22 15.0189 12.8019 14.9481 11.8821H18.3443V13.2972C18.7689 12.5896 19.6179 11.5991 21.3868 11.5991C23.5802 11.5991 25.2783 13.0849 25.2783 16.1981ZM11.4104 7C10.2783 7 9.5 7.7783 9.5 8.76887C9.5 9.75943 10.2075 10.5377 11.3396 10.5377C12.5425 10.5377 13.25 9.75943 13.25 8.76887C13.3208 7.70755 12.6132 7 11.4104 7ZM9.71226 22H13.1085V11.8821H9.71226V22Z" fill="url(#paint1_linear_844_1404)"/>
<defs>
<linearGradient id="paint0_linear_844_1404" x1="16.5" y1="0" x2="16.5" y2="32" gradientUnits="userSpaceOnUse">
<stop stop-color="#FF00E5"/>
<stop offset="1" stop-color="#7000FF"/>
</linearGradient>
<linearGradient id="paint1_linear_844_1404" x1="16.5" y1="0" x2="16.5" y2="32" gradientUnits="userSpaceOnUse">
<stop stop-color="#FF00E5"/>
<stop offset="1" stop-color="#7000FF"/>
</linearGradient>
</defs>
</svg>
