<svg width="32" height="32" viewBox="0 0 32 32" fill="none" xmlns="http://www.w3.org/2000/svg">
<path fill-rule="evenodd" clip-rule="evenodd" d="M32 16C32 24.8366 24.8366 32 16 32C7.16344 32 0 24.8366 0 16C0 7.16344 7.16344 0 16 0C24.8366 0 32 7.16344 32 16ZM16 30.2222C23.8547 30.2222 30.2222 23.8547 30.2222 16C30.2222 8.14528 23.8547 1.77778 16 1.77778C8.14528 1.77778 1.77778 8.14528 1.77778 16C1.77778 23.8547 8.14528 30.2222 16 30.2222Z" fill="url(#paint0_linear_848_2568)"/>
<path fill-rule="evenodd" clip-rule="evenodd" d="M30.2222 16C30.2222 23.8547 23.8547 30.2222 16 30.2222C8.14528 30.2222 1.77778 23.8547 1.77778 16C1.77778 8.14528 8.14528 1.77778 16 1.77778C23.8547 1.77778 30.2222 8.14528 30.2222 16ZM24.7783 22V16.1981C24.7783 13.0849 23.0802 11.5991 20.8868 11.5991C19.1179 11.5991 18.2689 12.5896 17.8443 13.2972V11.8821H14.4481C14.5189 12.8019 14.4481 22 14.4481 22H17.8443V16.3396C17.8443 15.9858 17.9151 15.7028 17.9858 15.4906C18.1981 14.9245 18.7642 14.2877 19.684 14.2877C20.8868 14.2877 21.3821 15.2075 21.3821 16.5519V22H24.7783ZM9 8.76887C9 7.7783 9.7783 7 10.9104 7C12.1132 7 12.8208 7.70755 12.75 8.76887C12.75 9.75943 12.0425 10.5377 10.8396 10.5377C9.70755 10.5377 9 9.75943 9 8.76887ZM12.6085 22H9.21226V11.8821H12.6085V22Z" fill="url(#paint1_linear_848_2568)"/>
<defs>
<linearGradient id="paint0_linear_848_2568" x1="-5.74892" y1="-4.09157e-06" x2="40.5516" y2="6.63257" gradientUnits="userSpaceOnUse">
<stop stop-color="#FF00E5"/>
<stop offset="1" stop-color="#7000FF"/>
</linearGradient>
<linearGradient id="paint1_linear_848_2568" x1="-5.74892" y1="-4.09157e-06" x2="40.5516" y2="6.63257" gradientUnits="userSpaceOnUse">
<stop stop-color="#FF00E5"/>
<stop offset="1" stop-color="#7000FF"/>
</linearGradient>
</defs>
</svg>
