<svg width="33" height="32" viewBox="0 0 33 32" fill="none" xmlns="http://www.w3.org/2000/svg">
<path fill-rule="evenodd" clip-rule="evenodd" d="M32.5 16C32.5 24.8366 25.3366 32 16.5 32C7.66344 32 0.5 24.8366 0.5 16C0.5 7.16344 7.66344 0 16.5 0C25.3366 0 32.5 7.16344 32.5 16ZM16.5 30.2222C24.3547 30.2222 30.7222 23.8547 30.7222 16C30.7222 8.14528 24.3547 1.77778 16.5 1.77778C8.64528 1.77778 2.27778 8.14528 2.27778 16C2.27778 23.8547 8.64528 30.2222 16.5 30.2222Z" fill="url(#paint0_linear_844_1397)"/>
<path fill-rule="evenodd" clip-rule="evenodd" d="M19.7327 9.488C18.8891 9.44945 18.636 9.44145 16.5 9.44145C14.364 9.44145 14.1109 9.44945 13.2673 9.488C12.4869 9.52364 12.0636 9.65382 11.7815 9.76364C11.4084 9.90909 11.1415 10.0815 10.8615 10.3615C10.596 10.6197 10.3918 10.934 10.2636 11.2815C10.1538 11.5636 10.0236 11.9869 9.988 12.7673C9.94945 13.6109 9.94145 13.864 9.94145 16C9.94145 18.136 9.94945 18.3891 9.988 19.2327C10.0236 20.0131 10.1538 20.4364 10.2636 20.7185C10.3916 21.0655 10.596 21.3804 10.8615 21.6385C11.1196 21.904 11.4345 22.1084 11.7815 22.2364C12.0636 22.3462 12.4869 22.4764 13.2673 22.512C14.1109 22.5505 14.3633 22.5585 16.5 22.5585C18.6367 22.5585 18.8891 22.5505 19.7327 22.512C20.5131 22.4764 20.9364 22.3462 21.2185 22.2364C21.5916 22.0909 21.8585 21.9185 22.1385 21.6385C22.404 21.3804 22.6084 21.0655 22.7364 20.7185C22.8462 20.4364 22.9764 20.0131 23.012 19.2327C23.0505 18.3891 23.0585 18.136 23.0585 16C23.0585 13.864 23.0505 13.6109 23.012 12.7673C22.9764 11.9869 22.8462 11.5636 22.7364 11.2815C22.5909 10.9084 22.4185 10.6415 22.1385 10.3615C21.8803 10.0961 21.566 9.89179 21.2185 9.76364C20.9364 9.65382 20.5131 9.52364 19.7327 9.488ZM14.9264 12.201C14.4275 12.4076 13.9742 12.7105 13.5924 13.0924C12.8212 13.8635 12.388 14.9094 12.388 16C12.388 17.0906 12.8212 18.1365 13.5924 18.9076C14.3635 19.6788 15.4094 20.112 16.5 20.112C17.5906 20.112 18.6365 19.6788 19.4076 18.9076C19.7895 18.5258 20.0924 18.0725 20.299 17.5736C20.5057 17.0747 20.612 16.54 20.612 16C20.612 15.46 20.5057 14.9253 20.299 14.4264C20.0924 13.9275 19.7895 13.4742 19.4076 13.0924C19.0258 12.7105 18.5725 12.4076 18.0736 12.201C17.5747 11.9943 17.04 11.888 16.5 11.888C15.96 11.888 15.4253 11.9943 14.9264 12.201ZM21.7468 12.1847C21.6944 12.3038 21.6186 12.4111 21.524 12.5004C21.34 12.674 21.0956 12.769 20.8426 12.7653C20.5896 12.7616 20.3481 12.6595 20.1692 12.4806C19.9903 12.3017 19.8882 12.0602 19.8845 11.8072C19.8808 11.5543 19.9759 11.3098 20.1495 11.1258C20.2387 11.0312 20.3461 10.9554 20.4651 10.9031C20.5842 10.8507 20.7125 10.8227 20.8426 10.8208C20.9727 10.8189 21.1018 10.8431 21.2223 10.892C21.3429 10.9409 21.4524 11.0135 21.5443 11.1055C21.6363 11.1975 21.7089 11.307 21.7578 11.4275C21.8067 11.548 21.8309 11.6772 21.829 11.8072C21.8271 11.9373 21.7992 12.0656 21.7468 12.1847Z" fill="url(#paint1_linear_844_1397)"/>
<path d="M15.4782 18.4662C16.0488 18.7037 16.6843 18.7358 17.2759 18.5569C17.8676 18.378 18.3788 17.9992 18.7223 17.4853C19.0657 16.9713 19.22 16.3541 19.1589 15.739C19.0978 15.1239 18.8251 14.5491 18.3873 14.1127C18.1082 13.8338 17.7707 13.6202 17.3992 13.4874C17.0276 13.3545 16.6312 13.3057 16.2385 13.3444C15.8459 13.3832 15.4667 13.5085 15.1282 13.7114C14.7898 13.9142 14.5005 14.1896 14.2813 14.5177C14.0621 14.8458 13.9183 15.2184 13.8604 15.6087C13.8024 15.999 13.8317 16.3973 13.9462 16.7749C14.0607 17.1525 14.2574 17.5001 14.5223 17.7925C14.7872 18.085 15.1137 18.315 15.4782 18.4662Z" fill="url(#paint2_linear_844_1397)"/>
<path fill-rule="evenodd" clip-rule="evenodd" d="M13.2018 8.048C14.0549 8.00873 14.3269 8 16.5 8C18.6731 8 18.9451 8.00945 19.7975 8.048C20.6498 8.08654 21.2316 8.22254 21.7407 8.41964C22.2738 8.62109 22.7575 8.936 23.1575 9.34327C23.5647 9.74255 23.8789 10.2255 24.0796 10.7593C24.2775 11.2684 24.4127 11.8502 24.452 12.7011C24.4913 13.5556 24.5 13.8276 24.5 16C24.5 18.1731 24.4905 18.4451 24.452 19.2982C24.4135 20.1491 24.2775 20.7309 24.0796 21.24C23.8789 21.7739 23.5642 22.2576 23.1575 22.6575C22.7575 23.0647 22.2738 23.3789 21.7407 23.5796C21.2316 23.7775 20.6498 23.9127 19.7989 23.952C18.9451 23.9913 18.6731 24 16.5 24C14.3269 24 14.0549 23.9905 13.2018 23.952C12.3509 23.9135 11.7691 23.7775 11.26 23.5796C10.7261 23.3789 10.2424 23.0642 9.84255 22.6575C9.43555 22.2579 9.12059 21.7745 8.91964 21.2407C8.72254 20.7316 8.58727 20.1498 8.548 19.2989C8.50873 18.4444 8.5 18.1724 8.5 16C8.5 13.8269 8.50945 13.5549 8.548 12.7025C8.58654 11.8502 8.72254 11.2684 8.91964 10.7593C9.12089 10.2255 9.43609 9.74205 9.84327 9.34255C10.2426 8.93564 10.7258 8.62069 11.2593 8.41964C11.7684 8.22254 12.3509 8.08727 13.2018 8.048ZM19.7327 9.488C18.8891 9.44945 18.636 9.44145 16.5 9.44145C14.364 9.44145 14.1109 9.44945 13.2673 9.488C12.4869 9.52364 12.0636 9.65382 11.7815 9.76364C11.4084 9.90909 11.1415 10.0815 10.8615 10.3615C10.596 10.6197 10.3918 10.934 10.2636 11.2815C10.1538 11.5636 10.0236 11.9869 9.988 12.7673C9.94945 13.6109 9.94145 13.864 9.94145 16C9.94145 18.136 9.94945 18.3891 9.988 19.2327C10.0236 20.0131 10.1538 20.4364 10.2636 20.7185C10.3916 21.0655 10.596 21.3804 10.8615 21.6385C11.1196 21.904 11.4345 22.1084 11.7815 22.2364C12.0636 22.3462 12.4869 22.4764 13.2673 22.512C14.1109 22.5505 14.3633 22.5585 16.5 22.5585C18.6367 22.5585 18.8891 22.5505 19.7327 22.512C20.5131 22.4764 20.9364 22.3462 21.2185 22.2364C21.5916 22.0909 21.8585 21.9185 22.1385 21.6385C22.404 21.3804 22.6084 21.0655 22.7364 20.7185C22.8462 20.4364 22.9764 20.0131 23.012 19.2327C23.0505 18.3891 23.0585 18.136 23.0585 16C23.0585 13.864 23.0505 13.6109 23.012 12.7673C22.9764 11.9869 22.8462 11.5636 22.7364 11.2815C22.5909 10.9084 22.4185 10.6415 22.1385 10.3615C21.8803 10.0961 21.566 9.89179 21.2185 9.76364C20.9364 9.65382 20.5131 9.52364 19.7327 9.488Z" fill="url(#paint3_linear_844_1397)"/>
<defs>
<linearGradient id="paint0_linear_844_1397" x1="16.5" y1="0" x2="16.5" y2="32" gradientUnits="userSpaceOnUse">
<stop stop-color="#FF00E5"/>
<stop offset="1" stop-color="#7000FF"/>
</linearGradient>
<linearGradient id="paint1_linear_844_1397" x1="16.5" y1="0" x2="16.5" y2="32" gradientUnits="userSpaceOnUse">
<stop stop-color="#FF00E5"/>
<stop offset="1" stop-color="#7000FF"/>
</linearGradient>
<linearGradient id="paint2_linear_844_1397" x1="16.5" y1="0" x2="16.5" y2="32" gradientUnits="userSpaceOnUse">
<stop stop-color="#FF00E5"/>
<stop offset="1" stop-color="#7000FF"/>
</linearGradient>
<linearGradient id="paint3_linear_844_1397" x1="16.5" y1="0" x2="16.5" y2="32" gradientUnits="userSpaceOnUse">
<stop stop-color="#FF00E5"/>
<stop offset="1" stop-color="#7000FF"/>
</linearGradient>
</defs>
</svg>
