<svg width="82" height="82" viewBox="0 0 82 82" fill="none" xmlns="http://www.w3.org/2000/svg">
<path d="M61.5 28.3926C60.27 26.9918 59.0058 25.591 57.6733 24.2585L56.6825 23.336L57.1608 22.926C58.8316 21.4917 60.0223 19.5794 60.5722 17.4471C61.1221 15.3148 61.0047 13.0652 60.2358 11.0018C59.1216 8.67494 57.3576 6.72047 55.1567 5.37447C52.9558 4.02848 50.4122 3.34854 47.8333 3.41679V10.2501C49.0489 10.2332 50.2471 10.5409 51.3041 11.1415C52.3612 11.7421 53.2389 12.6138 53.8466 13.6668C54.4275 15.0335 53.8466 16.5368 52.2408 18.1426C52.0016 18.416 51.7283 18.5868 51.4891 18.826C41.2391 10.5918 29.9983 5.94512 24.4975 11.446C23.9213 12.035 23.4478 12.7164 23.0966 13.4618V13.8035L22.4816 15.6143L7.41414 60.3726C6.84421 62.0593 6.68433 63.8575 6.94775 65.6183C7.21117 67.379 7.8903 69.0517 8.92891 70.4977C9.96751 71.9437 11.3357 73.1215 12.9201 73.9335C14.5045 74.7454 16.2596 75.1682 18.04 75.1668C19.2024 75.1555 20.3557 74.9594 21.4566 74.586L68.3333 59.0401C68.9094 58.8257 69.4169 58.4597 69.8025 57.981L70.52 57.366C75.4058 52.446 72.2625 42.9818 65.7025 33.791C69.5976 31.5177 74.0827 30.4589 78.5833 30.7501V23.9168C72.5609 23.5854 66.5862 25.1508 61.5 28.3926ZM19.475 68.0943C18.6994 68.351 17.8678 68.3871 17.0729 68.1985C16.278 68.01 15.5512 67.6043 14.9735 67.0266C14.3958 66.4489 13.9901 65.7221 13.8016 64.9272C13.613 64.1323 13.6491 63.3007 13.9058 62.5251L18.5525 48.5168C21.8686 54.8407 26.9642 60.055 33.21 63.516L19.475 68.0943ZM43.3916 60.1335C38.2281 58.766 33.5178 56.0581 29.7377 52.284C25.9577 48.51 23.2423 43.804 21.8666 38.6426L25.2833 28.3926L25.4883 28.7001C25.8641 29.4518 26.3425 30.2376 26.8208 31.0235C27.2991 31.8093 27.3675 32.0143 27.7091 32.5268C28.0508 33.0393 28.8366 34.1668 29.4516 35.021C30.0666 35.8751 30.1008 35.9776 30.4766 36.456C30.8525 36.9343 31.9458 38.3351 32.7316 39.2576L33.7225 40.4535C34.8841 41.786 36.1141 43.0843 37.4125 44.4168C38.7108 45.7493 39.7358 46.6035 40.8291 47.8335L41.9566 48.7901L44.6216 50.9426L45.8858 51.8993C46.8425 52.5826 47.765 53.266 48.7216 53.881L49.7808 54.5643C51.0108 55.316 52.2408 56.0335 53.4366 56.6485H53.6075L43.3916 60.1335ZM65.6341 52.5143H65.4291C63.0716 53.8126 53.2658 50.5668 42.23 39.4968C41.0683 38.3351 39.975 37.2076 38.9841 36.0801L37.9933 34.8843L36.1825 32.6976L35.1916 31.331C34.7475 30.6818 34.2691 30.0668 33.8591 29.4518L32.9708 28.0168L31.98 26.411C31.7066 25.9326 31.5016 25.4885 31.2625 25.0443C31.0233 24.6001 30.75 24.156 30.545 23.6776C30.3617 23.2773 30.202 22.8666 30.0666 22.4476C29.8958 22.0035 29.6908 21.5593 29.5541 21.1493C29.4175 20.7393 29.3833 20.5001 29.2808 20.0901C29.1783 19.6801 29.11 19.3385 29.0416 18.9968C29.0246 18.7009 29.0246 18.4043 29.0416 18.1085C29.0087 17.8361 29.0087 17.5608 29.0416 17.2885L29.4175 16.2293C30.6475 14.9993 37.0366 16.2293 45.5783 22.721C44.1304 23.3744 42.5825 23.7787 41 23.9168V30.7501C44.6292 30.5414 48.1505 29.438 51.25 27.5385L52.89 29.1101C54.325 30.5451 55.6575 32.0143 56.9216 33.4835C54.9659 37.0201 54.2445 41.1077 54.8716 45.1001L61.705 43.7676C61.5036 42.5 61.5036 41.2086 61.705 39.941C62.7477 41.5222 63.6727 43.1781 64.4725 44.8951C66.3858 49.4051 66.2491 51.9335 65.6341 52.5143Z" fill="url(#paint0_linear_279_1741)"/>
<defs>
<linearGradient id="paint0_linear_279_1741" x1="42.7038" y1="3.41211" x2="42.7038" y2="75.1668" gradientUnits="userSpaceOnUse">
<stop stop-color="#FF00E5"/>
<stop offset="1" stop-color="#7000FF"/>
</linearGradient>
</defs>
</svg>
