<svg width="48" height="48" viewBox="0 0 48 48" fill="none" xmlns="http://www.w3.org/2000/svg">
<path d="M9.17161 19.8945C7.19022 19.8945 1.27607 23.0468 0.615603 23.407C0.315392 23.5871 0.165286 23.9774 0.375434 24.3076C0.405455 24.3377 0.435477 24.4277 0.465498 24.4577C0.495519 24.4878 0.55556 24.5478 0.615603 24.5478C1.27607 24.9081 7.19022 28.0603 9.17161 28.0603C11.4532 28.0603 13.2845 26.229 13.2545 23.9774C13.2545 21.7559 11.4232 19.9246 9.17161 19.8945Z" fill="#7000FF"/>
<path d="M46.848 24.5477C47.0582 24.2174 47.0281 23.8272 46.848 23.4669C45.9174 22.0559 44.7766 20.735 43.5457 19.5642C39.0425 15.061 33.9389 14.7608 28.7453 15.9316L24.2121 11.3984C23.4015 10.6479 22.2607 10.4077 21.21 10.6779L14.7254 12.8394C14.5153 12.9295 14.3352 13.0496 14.125 13.1997C13.5546 13.7701 13.5546 14.7308 14.125 15.3012L18.6582 19.8343L16.7369 19.8343C15.6561 19.8343 14.7855 20.705 14.7555 21.8157L14.7555 26.2589C14.7555 27.3396 15.6261 28.2102 16.7369 28.2403L18.7182 28.2403L14.1851 32.7734C13.6147 33.3438 13.5846 34.2745 14.1851 34.8749C14.3352 35.025 14.5153 35.1451 14.7254 35.2352L21.18 37.3667C22.2607 37.6669 23.3715 37.3967 24.1821 36.6462L28.7753 32.0529C33.969 33.2238 39.0725 32.9235 43.5457 28.4504C44.7766 27.2796 45.8873 25.9887 46.848 24.5477ZM35.0797 25.7485C34.1191 24.7878 34.1191 23.2267 35.0797 22.2661C36.0404 21.3054 37.6015 21.3054 38.5622 22.2661C39.5229 23.2267 39.5229 24.7878 38.5622 25.7485C37.6015 26.7092 36.0404 26.7092 35.0797 25.7485Z" fill="#7000FF"/>
</svg>
