<svg width="60" height="60" viewBox="0 0 60 60" fill="none" xmlns="http://www.w3.org/2000/svg">
<g clip-path="url(#clip0_844_1572)">
<path d="M12 0H48C54.6248 0 60 5.37517 60 12V48C60 54.6248 54.6248 60 48 60H12C5.37517 60 0 54.6248 0 48V12C0 5.37517 5.37517 0 12 0Z" fill="#FEDA08"/>
<path d="M41.3991 29.7838C43.2896 29.2951 44.9719 27.8772 44.9719 25.0334C44.9719 20.2991 40.9505 19.2017 35.8076 19.2017H15.3003V40.5101H23.9278V33.2764H34.1654C35.7436 33.2764 36.6648 33.9013 36.6648 35.4473V40.5021H45.3003V35.175C45.3003 32.2831 43.6661 30.4487 41.3991 29.7838ZM34.3177 27.5328H23.9278V25.45H34.3177C35.4472 25.45 36.1361 25.6022 36.1361 26.4914C36.1361 27.3806 35.4472 27.5328 34.3177 27.5328Z" fill="#010101"/>
</g>
<defs>
<clipPath id="clip0_844_1572">
<rect width="60" height="60" fill="white"/>
</clipPath>
</defs>
</svg>
