<svg width="34" height="34" viewBox="0 0 34 34" fill="none" xmlns="http://www.w3.org/2000/svg">
<path d="M3.61192 24.5825C2.21087 25.9835 0.25788 32.3944 0.0455988 33.1162C-0.0393136 33.4558 0.130511 33.8379 0.512617 33.9228C0.555073 33.9228 0.639986 33.9653 0.682442 33.9653C0.724899 33.9653 0.809811 33.9653 0.852267 33.9228C1.57402 33.7105 7.98491 31.7576 9.38597 30.3565C10.9993 28.7432 10.9993 26.1533 9.38597 24.5825C7.81509 23.0116 5.22526 23.0116 3.61192 24.5825Z" fill="url(#paint0_linear_846_1721)"/>
<path d="M33.5435 1.23132C33.4586 0.849213 33.1614 0.594476 32.7793 0.467107C31.1235 0.127458 29.3828 8.89658e-05 27.6845 0.0425453C21.3161 0.0425459 17.495 3.43904 14.6505 7.93941L8.23957 7.93941C7.13571 7.98186 6.15922 8.61871 5.60729 9.55274L2.55044 15.6664C2.46553 15.8787 2.42307 16.091 2.38061 16.3457C2.38061 17.1524 3.05991 17.8317 3.86658 17.8317L10.2775 17.8317L8.91887 19.1903C8.15466 19.9545 8.15466 21.1858 8.91887 21.9924L12.0606 25.1342C12.8248 25.8984 14.0561 25.8984 14.8627 25.1342L16.2638 23.7331L16.2638 30.144C16.2638 30.9507 16.9006 31.63 17.7498 31.63C17.962 31.63 18.1743 31.5875 18.3866 31.5026L24.4579 28.4458C25.4343 27.8938 26.0287 26.9173 26.0712 25.8135L26.0712 19.3177C30.5716 16.4731 33.9681 12.652 33.9681 6.32607C34.0105 4.62782 33.8831 2.92957 33.5435 1.23132ZM26.0712 10.4019C24.7126 10.4019 23.6087 9.298 23.6087 7.93941C23.6087 6.58081 24.7126 5.47694 26.0712 5.47694C27.4298 5.47694 28.5337 6.58081 28.5337 7.9394C28.5337 9.298 27.4298 10.4019 26.0712 10.4019Z" fill="url(#paint1_linear_846_1721)"/>
<defs>
<linearGradient id="paint0_linear_846_1721" x1="5.31007" y1="23.4043" x2="5.31007" y2="33.9653" gradientUnits="userSpaceOnUse">
<stop stop-color="#FF00E5"/>
<stop offset="1" stop-color="#7000FF"/>
</linearGradient>
<linearGradient id="paint1_linear_846_1721" x1="18.1783" y1="0.0346666" x2="18.1783" y2="31.63" gradientUnits="userSpaceOnUse">
<stop stop-color="#FF00E5"/>
<stop offset="1" stop-color="#7000FF"/>
</linearGradient>
</defs>
</svg>
