<svg width="28" height="28" viewBox="0 0 28 28" fill="none" xmlns="http://www.w3.org/2000/svg">
<path d="M11.605 5.35035C11.605 4.19454 13.4438 0.744617 13.6539 0.359346C13.759 0.184223 13.9867 0.0966614 14.1793 0.219248C14.1968 0.23676 14.2494 0.254273 14.2669 0.271785C14.2844 0.289297 14.3194 0.324321 14.3194 0.359346C14.5296 0.744617 16.3683 4.19454 16.3683 5.35035C16.3683 6.68129 15.3001 7.74954 13.9867 7.73202C12.6908 7.73202 11.6225 6.66377 11.605 5.35035Z" fill="white"/>
<path d="M14.3193 27.3287C14.1267 27.4513 13.899 27.4338 13.6889 27.3287C12.8658 26.7858 12.0952 26.1203 11.4123 25.4023C8.78542 22.7755 8.61029 19.7984 9.29327 16.7688L6.64892 14.1244C6.21111 13.6516 6.07101 12.9861 6.22862 12.3732L7.48951 8.59053C7.54204 8.46795 7.61209 8.36287 7.69965 8.24028C8.03239 7.90755 8.59278 7.90755 8.92551 8.24028L11.5699 10.8846L11.5699 9.76386C11.5699 9.13341 12.0777 8.62556 12.7257 8.60804L15.3175 8.60804C15.9479 8.60804 16.4558 9.1159 16.4733 9.76386L16.4733 10.9197L19.1177 8.27531C19.4504 7.94257 19.9933 7.92506 20.3435 8.27531C20.4311 8.36287 20.5011 8.46794 20.5537 8.59053L21.7971 12.3557C21.9722 12.9861 21.8146 13.6341 21.3768 14.1069L18.6974 16.7863C19.3804 19.8159 19.2052 22.793 16.5959 25.4023C15.9129 26.1203 15.1599 26.7683 14.3193 27.3287ZM15.0198 20.4639C14.4594 19.9035 13.5488 19.9035 12.9884 20.4639C12.428 21.0243 12.428 21.9349 12.9884 22.4953C13.5488 23.0557 14.4594 23.0557 15.0198 22.4953C15.5802 21.9349 15.5802 21.0243 15.0198 20.4639Z" fill="white"/>
</svg>
