<svg width="28" height="34" viewBox="0 0 28 34" fill="none" xmlns="http://www.w3.org/2000/svg">
<path d="M13.4523 33.8481C13.7826 34.0582 14.1728 34.0282 14.5331 33.8481C15.9441 32.9174 17.265 31.7766 18.4358 30.5458C22.939 26.0426 23.2392 20.939 22.0684 15.7454L26.6016 11.2122C27.3521 10.4016 27.5923 9.2608 27.3221 8.21006L25.1606 1.7255C25.0705 1.51535 24.9504 1.33523 24.8003 1.12508C24.2299 0.55468 23.2692 0.554679 22.6988 1.12508L18.1657 5.65827L18.1657 3.73692C18.1657 2.65616 17.295 1.78554 16.1843 1.75552L11.7411 1.75552C10.6604 1.75553 9.78977 2.62614 9.75975 3.73692L9.75975 5.71831L5.22656 1.18512C4.65616 0.61472 3.72551 0.584698 3.12509 1.18512C2.97498 1.33523 2.8549 1.51535 2.76483 1.7255L0.633335 8.18004C0.333125 9.2608 0.603317 10.3716 1.35384 11.1821L5.94707 15.7754C4.77625 20.969 5.07646 26.0726 9.5496 30.5458C10.7204 31.7766 12.0113 32.8874 13.4523 33.8481ZM12.2515 22.0798C13.2122 21.1191 14.7733 21.1191 15.7339 22.0798C16.6946 23.0405 16.6946 24.6016 15.7339 25.5623C14.7733 26.5229 13.2122 26.5229 12.2515 25.5623C11.2908 24.6016 11.2908 23.0405 12.2515 22.0798Z" fill="url(#paint0_linear_891_64)"/>
<defs>
<linearGradient id="paint0_linear_891_64" x1="40.3477" y1="8.64507" x2="3.39164" y2="36.3398" gradientUnits="userSpaceOnUse">
<stop stop-color="#FF00E5"/>
<stop offset="1" stop-color="#7000FF"/>
</linearGradient>
</defs>
</svg>
