<svg width="48" height="48" viewBox="0 0 48 48" fill="none" xmlns="http://www.w3.org/2000/svg">
<path d="M28.1051 9.17158C28.1051 7.19019 24.9529 1.27604 24.5926 0.615573C24.4125 0.315362 24.0222 0.165256 23.692 0.375403C23.662 0.405424 23.5719 0.435446 23.5419 0.465467C23.5119 0.495488 23.4518 0.55553 23.4518 0.615572C23.0916 1.27604 19.9394 7.19019 19.9394 9.17158C19.9394 11.4532 21.7706 13.2845 24.0222 13.2544C26.2438 13.2544 28.0751 11.4232 28.1051 9.17158V9.17158Z" fill="url(#paint0_linear_982_62)"/>
<path d="M23.4523 46.8481C23.7826 47.0582 24.1728 47.0282 24.5331 46.8481C25.9441 45.9174 27.265 44.7766 28.4358 43.5458C32.939 39.0426 33.2392 33.939 32.0684 28.7454L36.6016 24.2122C37.3521 23.4016 37.5923 22.2608 37.3221 21.2101L35.1606 14.7255C35.0705 14.5154 34.9504 14.3352 34.8003 14.1251C34.2299 13.5547 33.2692 13.5547 32.6988 14.1251L28.1657 18.6583L28.1657 16.7369C28.1657 15.6562 27.295 14.7855 26.1843 14.7555L21.7411 14.7555C20.6604 14.7555 19.7898 15.6261 19.7597 16.7369L19.7597 18.7183L15.2266 14.1851C14.6562 13.6147 13.7255 13.5847 13.1251 14.1851C12.975 14.3352 12.8549 14.5154 12.7648 14.7255L10.6333 21.18C10.3331 22.2608 10.6033 23.3716 11.3538 24.1821L15.9471 28.7754C14.7762 33.969 15.0765 39.0726 19.5496 43.5458C20.7204 44.7766 22.0113 45.8874 23.4523 46.8481V46.8481ZM22.2515 35.0798C23.2122 34.1191 24.7733 34.1191 25.7339 35.0798C26.6946 36.0405 26.6946 37.6016 25.7339 38.5623C24.7733 39.5229 23.2122 39.5229 22.2515 38.5623C21.2908 37.6016 21.2908 36.0405 22.2515 35.0798Z" fill="url(#paint1_linear_982_62)"/>
<defs>
<linearGradient id="paint0_linear_982_62" x1="32.8181" y1="6.12476" x2="20.4515" y2="15.3895" gradientUnits="userSpaceOnUse">
<stop stop-color="#FF00E5"/>
<stop offset="1" stop-color="#7000FF"/>
</linearGradient>
<linearGradient id="paint1_linear_982_62" x1="50.3477" y1="21.6451" x2="13.3916" y2="49.3398" gradientUnits="userSpaceOnUse">
<stop stop-color="#FF00E5"/>
<stop offset="1" stop-color="#7000FF"/>
</linearGradient>
</defs>
</svg>
