<svg width="40" height="40" viewBox="0 0 40 40" fill="none" xmlns="http://www.w3.org/2000/svg">
<path d="M40 20C40 31.0451 31.0451 40 20 40C8.95493 40 0 31.0451 0 20C0 8.95493 8.95493 0 20 0C31.0474 0 40 8.95493 40 20Z" fill="white"/>
<path d="M9.86745 20.6719L9.95372 20.5363L15.1565 12.3972C15.2326 12.278 15.4113 12.2903 15.4689 12.4198C16.338 14.3678 17.0881 16.7904 16.7367 18.2986C16.5867 18.9191 16.1757 19.7596 15.7134 20.5363C15.6538 20.6493 15.588 20.7603 15.5182 20.8671C15.4853 20.9164 15.4298 20.9452 15.3702 20.9452H10.0195C9.87563 20.9452 9.79141 20.7891 9.86745 20.6719Z" fill="#2081E2"/>
<path d="M33.0572 22.1844V23.4728C33.0572 23.5467 33.012 23.6125 32.9462 23.6412C32.5435 23.8139 31.1647 24.4468 30.5914 25.244C29.1284 27.2803 28.0106 30.192 25.5119 30.192H15.0878C11.3933 30.192 8.39941 27.1879 8.39941 23.481V23.3618C8.39941 23.2632 8.47955 23.183 8.57817 23.183H14.3892C14.5043 23.183 14.5885 23.2899 14.5783 23.4029C14.5371 23.781 14.607 24.1673 14.7858 24.5187C15.131 25.2193 15.8461 25.657 16.6187 25.657H19.4954V23.4111H16.6515C16.5056 23.4111 16.4194 23.2426 16.5036 23.1234C16.5344 23.0762 16.5694 23.0268 16.6063 22.9714C16.8755 22.5892 17.2598 21.9953 17.6419 21.3193C17.9029 20.8632 18.1557 20.3761 18.3591 19.8871C18.4002 19.7988 18.4331 19.7084 18.4659 19.62C18.5214 19.4638 18.579 19.3179 18.62 19.172C18.6611 19.0488 18.694 18.9193 18.7269 18.798C18.8235 18.383 18.8646 17.9432 18.8646 17.4871C18.8646 17.3083 18.8563 17.1213 18.8399 16.9425C18.8317 16.7473 18.8071 16.5521 18.7824 16.3569C18.7659 16.1843 18.7351 16.0138 18.7023 15.835C18.6611 15.574 18.6036 15.3152 18.5379 15.0542L18.5153 14.9556C18.4659 14.7768 18.4248 14.6062 18.3673 14.4275C18.205 13.8665 18.018 13.3199 17.8207 12.8083C17.7488 12.6048 17.6666 12.4096 17.5844 12.2144C17.4632 11.9206 17.3399 11.6535 17.2269 11.4007C17.1694 11.2856 17.12 11.1808 17.0707 11.074C17.0152 10.9528 16.9577 10.8316 16.9002 10.7164C16.8591 10.6281 16.8118 10.5459 16.7789 10.4637L16.4276 9.8144C16.3783 9.72604 16.4604 9.62124 16.557 9.64795L18.7557 10.2439H18.7619C18.7659 10.2439 18.768 10.2459 18.7701 10.2459L19.0598 10.326L19.3783 10.4164L19.4954 10.4493V9.14249C19.4954 8.51164 20.0009 8 20.6255 8C20.9379 8 21.2215 8.12738 21.4249 8.33493C21.6283 8.54249 21.7557 8.82604 21.7557 9.14249V11.0822L21.9899 11.148C22.0084 11.1541 22.0269 11.1624 22.0434 11.1747C22.1009 11.2178 22.1831 11.2816 22.2879 11.3596C22.3701 11.4254 22.4584 11.5055 22.5653 11.5877C22.777 11.7583 23.0297 11.9781 23.3071 12.2308C23.3811 12.2946 23.453 12.3603 23.5187 12.4261C23.8763 12.7589 24.277 13.1494 24.6591 13.5809C24.766 13.7021 24.8708 13.8254 24.9776 13.9548C25.0845 14.0864 25.1975 14.2158 25.2962 14.3453C25.4256 14.5179 25.5653 14.6966 25.6866 14.8836C25.7441 14.972 25.8099 15.0624 25.8653 15.1508C26.0215 15.3871 26.1592 15.6316 26.2907 15.8761C26.3462 15.9891 26.4037 16.1124 26.453 16.2336C26.5989 16.5604 26.714 16.8932 26.7879 17.2261C26.8106 17.298 26.827 17.3761 26.8352 17.446V17.4624C26.8599 17.5611 26.8681 17.6659 26.8763 17.7727C26.9092 18.1138 26.8927 18.4549 26.8187 18.798C26.7879 18.944 26.7468 19.0816 26.6975 19.2275C26.6482 19.3672 26.5989 19.5131 26.5352 19.6508C26.4119 19.9364 26.266 20.222 26.0934 20.4892C26.0379 20.5878 25.9722 20.6926 25.9064 20.7912C25.8345 20.896 25.7605 20.9947 25.6948 21.0912C25.6044 21.2145 25.5078 21.344 25.4091 21.459C25.3208 21.5803 25.2304 21.7015 25.1318 21.8084C24.9941 21.9707 24.8626 22.1248 24.7249 22.2728C24.6427 22.3693 24.5543 22.468 24.4639 22.5563C24.3756 22.6549 24.2852 22.7433 24.203 22.8255C24.0653 22.9632 23.9503 23.07 23.8537 23.1584L23.6276 23.3659C23.5947 23.3947 23.5516 23.4111 23.5064 23.4111H21.7557V25.657H23.9585C24.4516 25.657 24.9201 25.4824 25.2982 25.1618C25.4276 25.0488 25.9927 24.5597 26.6606 23.8221C26.6831 23.7974 26.7119 23.7789 26.7448 23.7707L32.8291 22.0118C32.9421 21.9789 33.0572 22.0652 33.0572 22.1844Z" fill="#2081E2"/>
</svg>
