<svg width="71" height="67" viewBox="0 0 71 67" fill="none" xmlns="http://www.w3.org/2000/svg">
<path d="M60.2202 4.27479C59.6039 3.25293 58.7347 2.40712 57.6965 1.81893C56.6582 1.23074 55.4859 0.920022 54.2926 0.916748H16.7074C14.2935 0.916748 12.0214 2.20325 10.7798 4.27479L1.41121 19.8857C1.08701 20.4232 0.91599 21.0391 0.916666 21.6667C0.930478 25.0048 2.15992 28.2234 4.375 30.7207V59.7084C4.375 63.5229 7.47712 66.6251 11.2917 66.6251H59.7083C63.5229 66.6251 66.625 63.5229 66.625 59.7084V30.7207C68.8401 28.2234 70.0695 25.0048 70.0833 21.6667C70.084 21.0391 69.913 20.4232 69.5888 19.8857L60.2202 4.27479ZM63.1113 22.5348C62.8979 24.2045 62.0837 25.7394 60.8209 26.8526C59.5582 27.9658 57.9333 28.581 56.25 28.5834C52.4355 28.5834 49.3333 25.4813 49.3333 21.6667C49.3333 21.4316 49.2469 21.2241 49.1985 21.0027L49.2676 20.9889L46.6358 7.83341H54.2926L63.1113 22.5348ZM31.4157 7.83341H39.5808L42.3925 21.8915C42.2714 25.5989 39.235 28.5834 35.5 28.5834C31.765 28.5834 28.7286 25.5989 28.6075 21.8915L31.4157 7.83341ZM16.7074 7.83341H24.3642L21.7358 20.9889L21.805 21.0027C21.7531 21.2241 21.6667 21.4316 21.6667 21.6667C21.6667 25.4813 18.5645 28.5834 14.75 28.5834C13.0667 28.581 11.4418 27.9658 10.179 26.8526C8.91631 25.7394 8.10213 24.2045 7.88866 22.5348L16.7074 7.83341ZM28.5833 59.7084V49.3334H42.4167V59.7084H28.5833ZM49.3333 59.7084V49.3334C49.3333 45.5189 46.2312 42.4167 42.4167 42.4167H28.5833C24.7688 42.4167 21.6667 45.5189 21.6667 49.3334V59.7084H11.2917V35.009C12.4018 35.296 13.5465 35.5001 14.75 35.5001C16.7137 35.5011 18.655 35.083 20.4442 34.2737C22.2333 33.4644 23.8292 32.2825 25.125 30.8071C27.66 33.6845 31.3742 35.5001 35.5 35.5001C39.6258 35.5001 43.34 33.6845 45.875 30.8071C47.1708 32.2825 48.7667 33.4644 50.5558 34.2737C52.345 35.083 54.2863 35.5011 56.25 35.5001C57.4535 35.5001 58.5982 35.296 59.7083 35.009V59.7084H49.3333Z" fill="url(#paint0_linear_279_2444)"/>
<defs>
<linearGradient id="paint0_linear_279_2444" x1="35.5" y1="0.916748" x2="35.5" y2="66.6251" gradientUnits="userSpaceOnUse">
<stop stop-color="#FF00E5"/>
<stop offset="1" stop-color="#7000FF"/>
</linearGradient>
</defs>
</svg>
