<svg width="1920" height="898" viewBox="0 0 1920 898" fill="none" xmlns="http://www.w3.org/2000/svg">
<path opacity="0.3" d="M1498.37 625.642C1499.06 626.127 1500.54 626.568 1500.54 626.568C1500.54 626.568 1499.55 627.762 1499.27 628.551C1498.92 629.549 1498.66 630.649 1498.66 630.649C1498.66 630.649 1497.85 629.85 1496.97 629.257C1496.21 628.739 1494.81 628.331 1494.81 628.331C1494.81 628.331 1495.72 627.199 1496.08 626.348C1496.45 625.468 1496.6 623.959 1496.6 623.959C1496.6 623.959 1497.6 625.09 1498.37 625.642Z" fill="white"/>
<path d="M1451.99 504.804C1452.37 505.548 1453.49 506.623 1453.49 506.623C1453.49 506.623 1452.06 507.226 1451.45 507.799C1450.68 508.523 1449.94 509.381 1449.94 509.381C1449.94 509.381 1449.59 508.299 1449.08 507.37C1448.64 506.558 1447.59 505.551 1447.59 505.551C1447.59 505.551 1448.92 504.968 1449.63 504.375C1450.36 503.763 1451.19 502.494 1451.19 502.494C1451.19 502.494 1451.55 503.956 1451.99 504.804Z" fill="white"/>
<path d="M1470.04 405.431C1470.42 406.174 1471.54 407.25 1471.54 407.25C1471.54 407.25 1470.11 407.852 1469.5 408.425C1468.73 409.149 1467.99 410.007 1467.99 410.007C1467.99 410.007 1467.64 408.925 1467.14 407.996C1466.7 407.185 1465.64 406.177 1465.64 406.177C1465.64 406.177 1466.97 405.595 1467.68 405.002C1468.41 404.39 1469.24 403.12 1469.24 403.12C1469.24 403.12 1469.61 404.583 1470.04 405.431Z" fill="white"/>
<path d="M1637.2 330.095C1637.58 330.838 1638.7 331.914 1638.7 331.914C1638.7 331.914 1637.27 332.517 1636.66 333.089C1635.89 333.814 1635.15 334.671 1635.15 334.671C1635.15 334.671 1634.8 333.589 1634.29 332.66C1633.85 331.849 1632.8 330.841 1632.8 330.841C1632.8 330.841 1634.13 330.259 1634.84 329.666C1635.57 329.054 1636.4 327.784 1636.4 327.784C1636.4 327.784 1636.76 329.247 1637.2 330.095Z" fill="white"/>
<path d="M1446.65 289.159C1446.76 289.469 1447.12 289.908 1447.12 289.908C1447.12 289.908 1446.63 290.189 1446.41 290.443C1446.14 290.764 1445.88 291.141 1445.88 291.141C1445.88 291.141 1445.78 290.687 1445.63 290.3C1445.49 289.962 1445.15 289.551 1445.15 289.551C1445.15 289.551 1445.61 289.281 1445.86 289.016C1446.12 288.744 1446.42 288.19 1446.42 288.19C1446.42 288.19 1446.52 288.806 1446.65 289.159Z" fill="white"/>
<path d="M1350.36 348.116C1350.74 348.859 1351.86 349.935 1351.86 349.935C1351.86 349.935 1350.42 350.538 1349.82 351.11C1349.04 351.835 1348.31 352.693 1348.31 352.693C1348.31 352.693 1347.96 351.61 1347.45 350.681C1347.01 349.87 1345.96 348.862 1345.96 348.862C1345.96 348.862 1347.29 348.28 1348 347.687C1348.73 347.075 1349.56 345.805 1349.56 345.805C1349.56 345.805 1349.92 347.268 1350.36 348.116Z" fill="white"/>
<path opacity="0.5" d="M1333.36 215.683C1333.92 216.303 1335.28 217.055 1335.28 217.055C1335.28 217.055 1334.05 218.007 1333.61 218.717C1333.05 219.615 1332.56 220.633 1332.56 220.633C1332.56 220.633 1331.94 219.677 1331.22 218.909C1330.58 218.238 1329.3 217.537 1329.3 217.537C1329.3 217.537 1330.44 216.63 1330.97 215.876C1331.52 215.096 1332 213.656 1332 213.656C1332 213.656 1332.73 214.976 1333.36 215.683Z" fill="white"/>
<path d="M1212.42 108.206C1212.93 109.166 1214.43 110.56 1214.43 110.56C1214.43 110.56 1212.53 111.324 1211.72 112.056C1210.7 112.982 1209.73 114.08 1209.73 114.08C1209.73 114.08 1209.25 112.684 1208.57 111.484C1207.98 110.436 1206.56 109.13 1206.56 109.13C1206.56 109.13 1208.33 108.391 1209.27 107.634C1210.24 106.852 1211.33 105.225 1211.33 105.225C1211.33 105.225 1211.83 107.111 1212.42 108.206Z" fill="white"/>
<path d="M1158.13 259.328C1158.52 260.072 1159.63 261.147 1159.63 261.147C1159.63 261.147 1158.2 261.75 1157.59 262.322C1156.82 263.047 1156.08 263.905 1156.08 263.905C1156.08 263.905 1155.73 262.823 1155.23 261.894C1154.79 261.082 1153.73 260.075 1153.73 260.075C1153.73 260.075 1155.07 259.492 1155.77 258.899C1156.5 258.287 1157.33 257.017 1157.33 257.017C1157.33 257.017 1157.7 258.48 1158.13 259.328Z" fill="white"/>
<path d="M1225.27 248.943C1225.39 249.253 1225.74 249.692 1225.74 249.692C1225.74 249.692 1225.25 249.973 1225.04 250.227C1224.77 250.548 1224.5 250.925 1224.5 250.925C1224.5 250.925 1224.4 250.471 1224.25 250.084C1224.12 249.746 1223.78 249.335 1223.78 249.335C1223.78 249.335 1224.24 249.065 1224.48 248.8C1224.74 248.528 1225.04 247.974 1225.04 247.974C1225.04 247.974 1225.14 248.59 1225.27 248.943Z" fill="white"/>
<path d="M1230.13 361.41C1230.85 361.834 1232.37 362.144 1232.37 362.144C1232.37 362.144 1231.48 363.421 1231.27 364.231C1231.01 365.255 1230.85 366.374 1230.85 366.374C1230.85 366.374 1229.97 365.647 1229.05 365.133C1228.24 364.683 1226.81 364.399 1226.81 364.399C1226.81 364.399 1227.62 363.192 1227.9 362.312C1228.19 361.405 1228.21 359.887 1228.21 359.887C1228.21 359.887 1229.31 360.927 1230.13 361.41Z" fill="white"/>
<path d="M1318.99 537.56C1319.38 538.304 1320.49 539.379 1320.49 539.379C1320.49 539.379 1319.06 539.982 1318.45 540.555C1317.68 541.279 1316.94 542.137 1316.94 542.137C1316.94 542.137 1316.59 541.055 1316.09 540.126C1315.65 539.314 1314.59 538.307 1314.59 538.307C1314.59 538.307 1315.93 537.724 1316.63 537.131C1317.36 536.519 1318.19 535.25 1318.19 535.25C1318.19 535.25 1318.56 536.712 1318.99 537.56Z" fill="white"/>
<path d="M1089.12 471.407C1089.5 472.151 1090.61 473.226 1090.61 473.226C1090.61 473.226 1089.18 473.829 1088.57 474.402C1087.8 475.126 1087.06 475.984 1087.06 475.984C1087.06 475.984 1086.71 474.902 1086.21 473.973C1085.77 473.161 1084.71 472.154 1084.71 472.154C1084.71 472.154 1086.05 471.571 1086.75 470.978C1087.48 470.366 1088.32 469.097 1088.32 469.097C1088.32 469.097 1088.68 470.559 1089.12 471.407Z" fill="white"/>
<path d="M1172.01 559.247C1172.69 559.742 1174.17 560.205 1174.17 560.205C1174.17 560.205 1173.15 561.384 1172.86 562.169C1172.5 563.161 1172.22 564.258 1172.22 564.258C1172.22 564.258 1171.43 563.446 1170.56 562.84C1169.8 562.311 1168.41 561.882 1168.41 561.882C1168.41 561.882 1169.34 560.764 1169.71 559.918C1170.09 559.044 1170.27 557.537 1170.27 557.537C1170.27 557.537 1171.24 558.683 1172.01 559.247Z" fill="white"/>
<path d="M1077.88 667.557C1078.26 668.3 1079.37 669.376 1079.37 669.376C1079.37 669.376 1077.94 669.979 1077.33 670.551C1076.56 671.276 1075.82 672.133 1075.82 672.133C1075.82 672.133 1075.47 671.051 1074.97 670.122C1074.53 669.311 1073.47 668.303 1073.47 668.303C1073.47 668.303 1074.81 667.721 1075.51 667.128C1076.24 666.516 1077.08 665.246 1077.08 665.246C1077.08 665.246 1077.44 666.709 1077.88 667.557Z" fill="white"/>
<path d="M1074.53 724.8C1074.36 725.135 1073.85 725.62 1073.85 725.62C1073.85 725.62 1074.5 725.892 1074.78 726.15C1075.12 726.477 1075.46 726.864 1075.46 726.864C1075.46 726.864 1075.61 726.376 1075.84 725.957C1076.04 725.591 1076.52 725.137 1076.52 725.137C1076.52 725.137 1075.91 724.874 1075.6 724.607C1075.27 724.331 1074.89 723.758 1074.89 723.758C1074.89 723.758 1074.73 724.418 1074.53 724.8Z" fill="white"/>
<path opacity="0.35" d="M963.612 704.284C963.44 704.619 962.936 705.104 962.936 705.104C962.936 705.104 963.583 705.376 963.857 705.634C964.205 705.961 964.537 706.348 964.537 706.348C964.537 706.348 964.695 705.86 964.922 705.441C965.121 705.075 965.598 704.62 965.598 704.62C965.598 704.62 964.996 704.358 964.677 704.09C964.348 703.814 963.973 703.242 963.973 703.242C963.973 703.242 963.808 703.902 963.612 704.284Z" fill="white"/>
<path opacity="0.35" d="M1089.61 177.284C1089.44 177.619 1088.94 178.104 1088.94 178.104C1088.94 178.104 1089.58 178.376 1089.86 178.634C1090.2 178.961 1090.54 179.347 1090.54 179.347C1090.54 179.347 1090.69 178.859 1090.92 178.441C1091.12 178.075 1091.6 177.62 1091.6 177.62C1091.6 177.62 1091 177.358 1090.68 177.09C1090.35 176.814 1089.97 176.242 1089.97 176.242C1089.97 176.242 1089.81 176.901 1089.61 177.284Z" fill="white"/>
<path opacity="0.35" d="M1700.61 250.284C1700.44 250.619 1699.94 251.104 1699.94 251.104C1699.94 251.104 1700.58 251.376 1700.86 251.634C1701.2 251.961 1701.54 252.347 1701.54 252.347C1701.54 252.347 1701.69 251.859 1701.92 251.441C1702.12 251.075 1702.6 250.62 1702.6 250.62C1702.6 250.62 1702 250.358 1701.68 250.09C1701.35 249.814 1700.97 249.242 1700.97 249.242C1700.97 249.242 1700.81 249.901 1700.61 250.284Z" fill="white"/>
<path d="M1758.69 168.093C1758.1 168.337 1756.92 168.412 1756.92 168.412C1756.92 168.412 1757.45 169.469 1757.53 170.103C1757.62 170.904 1757.62 171.766 1757.62 171.766C1757.62 171.766 1758.36 171.309 1759.11 171.018C1759.77 170.763 1760.88 170.699 1760.88 170.699C1760.88 170.699 1760.39 169.701 1760.27 169.008C1760.15 168.292 1760.29 167.144 1760.29 167.144C1760.29 167.144 1759.36 167.815 1758.69 168.093Z" fill="white"/>
<path d="M1267.44 767.709C1268.07 768.262 1269.5 768.855 1269.5 768.855C1269.5 768.855 1268.39 769.94 1268.03 770.695C1267.58 771.651 1267.21 772.719 1267.21 772.719C1267.21 772.719 1266.48 771.839 1265.68 771.158C1264.97 770.564 1263.62 770.013 1263.62 770.013C1263.62 770.013 1264.65 768.982 1265.09 768.172C1265.55 767.336 1265.86 765.85 1265.86 765.85C1265.86 765.85 1266.73 767.079 1267.44 767.709Z" fill="white"/>
<path d="M1386.09 719.88C1386.34 720.406 1387.07 721.163 1387.07 721.163C1387.07 721.163 1386.11 721.605 1385.7 722.018C1385.18 722.541 1384.68 723.159 1384.68 723.159C1384.68 723.159 1384.45 722.39 1384.12 721.732C1383.84 721.158 1383.14 720.449 1383.14 720.449C1383.14 720.449 1384.03 720.022 1384.51 719.594C1385.01 719.151 1385.57 718.239 1385.57 718.239C1385.57 718.239 1385.8 719.279 1386.09 719.88Z" fill="white"/>
<path opacity="0.25" d="M1651.23 834.729C1651.61 835.472 1652.73 836.548 1652.73 836.548C1652.73 836.548 1651.29 837.15 1650.68 837.723C1649.91 838.447 1649.18 839.305 1649.18 839.305C1649.18 839.305 1648.83 838.223 1648.32 837.294C1647.88 836.483 1646.82 835.475 1646.82 835.475C1646.82 835.475 1648.16 834.892 1648.87 834.3C1649.6 833.688 1650.43 832.418 1650.43 832.418C1650.43 832.418 1650.79 833.881 1651.23 834.729Z" fill="white"/>
<path d="M1696.17 618.673C1696.42 619.2 1697.16 619.957 1697.16 619.957C1697.16 619.957 1696.19 620.399 1695.78 620.812C1695.26 621.335 1694.76 621.952 1694.76 621.952C1694.76 621.952 1694.54 621.184 1694.21 620.526C1693.92 619.952 1693.22 619.242 1693.22 619.242C1693.22 619.242 1694.12 618.816 1694.6 618.387C1695.09 617.945 1695.65 617.033 1695.65 617.033C1695.65 617.033 1695.89 618.073 1696.17 618.673Z" fill="white"/>
<path d="M1388.15 137.875C1388.39 138.402 1389.13 139.159 1389.13 139.159C1389.13 139.159 1388.17 139.601 1387.76 140.014C1387.24 140.537 1386.74 141.155 1386.74 141.155C1386.74 141.155 1386.51 140.386 1386.18 139.728C1385.9 139.154 1385.2 138.444 1385.2 138.444C1385.2 138.444 1386.09 138.018 1386.57 137.589C1387.06 137.147 1387.63 136.235 1387.63 136.235C1387.63 136.235 1387.86 137.275 1388.15 137.875Z" fill="white"/>
<path d="M1525.32 209.821C1525.95 210.378 1527.38 210.98 1527.38 210.98C1527.38 210.98 1526.25 212.058 1525.89 212.811C1525.43 213.764 1525.05 214.829 1525.05 214.829C1525.05 214.829 1524.34 213.946 1523.53 213.26C1522.83 212.661 1521.48 212.102 1521.48 212.102C1521.48 212.102 1522.52 211.078 1522.97 210.27C1523.43 209.437 1523.75 207.953 1523.75 207.953C1523.75 207.953 1524.61 209.187 1525.32 209.821Z" fill="white"/>
<path opacity="0.5" d="M1630.89 99.6468C1631.14 100.174 1631.87 100.931 1631.87 100.931C1631.87 100.931 1630.91 101.372 1630.5 101.786C1629.98 102.308 1629.48 102.926 1629.48 102.926C1629.48 102.926 1629.25 102.158 1628.92 101.5C1628.64 100.925 1627.94 100.216 1627.94 100.216C1627.94 100.216 1628.84 99.7893 1629.31 99.3608C1629.81 98.9185 1630.37 98.0066 1630.37 98.0066C1630.37 98.0066 1630.6 99.0461 1630.89 99.6468Z" fill="white"/>
<path opacity="0.3" d="M1867.81 206.995C1868.05 207.219 1868.57 207.447 1868.57 207.447C1868.57 207.447 1868.26 207.921 1868.18 208.244C1868.09 208.654 1868.02 209.109 1868.02 209.109C1868.02 209.109 1867.73 208.749 1867.42 208.475C1867.14 208.235 1866.65 208.023 1866.65 208.023C1866.65 208.023 1866.94 207.574 1867.04 207.226C1867.14 206.866 1867.16 206.236 1867.16 206.236C1867.16 206.236 1867.53 206.74 1867.81 206.995Z" fill="white"/>
<path opacity="0.76" d="M1789.39 419.961C1790.04 421.138 1791.91 422.85 1791.91 422.85C1791.91 422.85 1789.54 423.775 1788.53 424.667C1787.26 425.794 1786.05 427.133 1786.05 427.133C1786.05 427.133 1785.45 425.423 1784.6 423.952C1783.85 422.667 1782.07 421.063 1782.07 421.063C1782.07 421.063 1784.29 420.168 1785.45 419.246C1786.66 418.295 1788.02 416.31 1788.02 416.31C1788.02 416.31 1788.65 418.619 1789.39 419.961Z" fill="white"/>
<path opacity="0.5" d="M1866.74 510.019C1867.12 510.763 1868.24 511.838 1868.24 511.838C1868.24 511.838 1866.8 512.441 1866.19 513.014C1865.42 513.738 1864.69 514.596 1864.69 514.596C1864.69 514.596 1864.34 513.514 1863.83 512.585C1863.39 511.773 1862.33 510.766 1862.33 510.766C1862.33 510.766 1863.67 510.183 1864.38 509.59C1865.11 508.978 1865.94 507.708 1865.94 507.708C1865.94 507.708 1866.3 509.171 1866.74 510.019Z" fill="white"/>
<path d="M1911.43 565.57C1911.67 565.799 1912.19 566.039 1912.19 566.039C1912.19 566.039 1911.86 566.505 1911.78 566.827C1911.67 567.234 1911.6 567.688 1911.6 567.688C1911.6 567.688 1911.32 567.322 1911.01 567.04C1910.74 566.794 1910.26 566.57 1910.26 566.57C1910.26 566.57 1910.55 566.128 1910.66 565.782C1910.77 565.426 1910.81 564.796 1910.81 564.796C1910.81 564.796 1911.16 565.309 1911.43 565.57Z" fill="white"/>
<path d="M1900.79 726.242C1902.55 727.647 1906.47 729.044 1906.47 729.044C1906.47 729.044 1903.68 732.143 1902.85 734.241C1901.8 736.895 1900.99 739.839 1900.99 739.839C1900.99 739.839 1898.92 737.563 1896.65 735.838C1894.67 734.331 1890.97 733.035 1890.97 733.035C1890.97 733.035 1893.55 730.096 1894.59 727.838C1895.67 725.507 1896.25 721.44 1896.25 721.44C1896.25 721.44 1898.78 724.639 1900.79 726.242Z" fill="white"/>
<path opacity="0.3" d="M195.932 363.178C195.333 363.209 194.301 363.625 194.301 363.625C194.301 363.625 194.327 362.509 194.132 361.942C193.884 361.225 193.539 360.491 193.539 360.491C193.539 360.491 194.35 360.58 195.106 360.522C195.766 360.473 196.737 360.075 196.737 360.075C196.737 360.075 196.726 361.121 196.906 361.758C197.093 362.416 197.679 363.333 197.679 363.333C197.679 363.333 196.615 363.142 195.932 363.178Z" fill="white"/>
<path d="M275.903 410.392C275.356 410.144 274.249 410.038 274.249 410.038C274.249 410.038 274.786 409.06 274.873 408.466C274.982 407.715 275.014 406.905 275.014 406.905C275.014 406.905 275.693 407.357 276.391 407.654C277 407.913 278.045 408.007 278.045 408.007C278.045 408.007 277.554 408.931 277.421 409.579C277.284 410.249 277.383 411.333 277.383 411.333C277.383 411.333 276.525 410.674 275.903 410.392Z" fill="white"/>
<path d="M310.087 474.288C309.541 474.04 308.433 473.934 308.433 473.934C308.433 473.934 308.97 472.956 309.057 472.362C309.167 471.611 309.198 470.801 309.198 470.801C309.198 470.801 309.878 471.253 310.575 471.55C311.185 471.809 312.229 471.903 312.229 471.903C312.229 471.903 311.738 472.827 311.606 473.475C311.468 474.145 311.567 475.229 311.567 475.229C311.567 475.229 310.71 474.57 310.087 474.288Z" fill="white"/>
<path d="M249.76 591.19C249.213 590.942 248.106 590.836 248.106 590.836C248.106 590.836 248.643 589.858 248.729 589.264C248.839 588.513 248.871 587.703 248.871 587.703C248.871 587.703 249.55 588.155 250.248 588.452C250.857 588.711 251.902 588.805 251.902 588.805C251.902 588.805 251.411 589.729 251.278 590.377C251.141 591.047 251.24 592.131 251.24 592.131C251.24 592.131 250.382 591.472 249.76 591.19Z" fill="white"/>
<path d="M375.101 529.19C374.898 529.068 374.501 528.981 374.501 528.981C374.501 528.981 374.652 528.603 374.66 528.365C374.669 528.063 374.648 527.734 374.648 527.734C374.648 527.734 374.907 527.945 375.166 528.094C375.392 528.224 375.766 528.304 375.766 528.304C375.766 528.304 375.629 528.66 375.607 528.919C375.585 529.187 375.663 529.632 375.663 529.632C375.663 529.632 375.333 529.33 375.101 529.19Z" fill="white"/>
<path d="M402.91 453.106C402.364 452.859 401.257 452.753 401.257 452.753C401.257 452.753 401.793 451.774 401.88 451.181C401.99 450.43 402.021 449.619 402.021 449.619C402.021 449.619 402.701 450.071 403.399 450.369C404.008 450.628 405.052 450.722 405.052 450.722C405.052 450.722 404.562 451.645 404.429 452.294C404.292 452.963 404.391 454.048 404.391 454.048C404.391 454.048 403.533 453.388 402.91 453.106Z" fill="white"/>
<path opacity="0.5" d="M471.538 519.945C470.946 519.847 469.849 520.029 469.849 520.029C469.849 520.029 470.116 518.946 470.048 518.35C469.961 517.596 469.783 516.804 469.783 516.804C469.783 516.804 470.555 517.066 471.306 517.174C471.962 517.268 472.995 517.091 472.995 517.091C472.995 517.091 472.758 518.109 472.797 518.77C472.836 519.452 473.211 520.475 473.211 520.475C473.211 520.475 472.213 520.058 471.538 519.945Z" fill="white"/>
<path d="M587.448 526.39C586.73 526.08 585.267 525.964 585.267 525.964C585.267 525.964 585.997 524.685 586.123 523.914C586.283 522.939 586.341 521.887 586.341 521.887C586.341 521.887 587.231 522.46 588.148 522.831C588.948 523.155 590.328 523.257 590.328 523.257C590.328 523.257 589.661 524.463 589.472 525.307C589.277 526.177 589.387 527.581 589.387 527.581C589.387 527.581 588.266 526.743 587.448 526.39Z" fill="white"/>
<path d="M550.539 417.251C549.993 417.003 548.886 416.897 548.886 416.897C548.886 416.897 549.422 415.919 549.509 415.325C549.619 414.574 549.65 413.764 549.65 413.764C549.65 413.764 550.33 414.216 551.028 414.513C551.637 414.772 552.681 414.866 552.681 414.866C552.681 414.866 552.191 415.79 552.058 416.438C551.92 417.108 552.02 418.192 552.02 418.192C552.02 418.192 551.162 417.533 550.539 417.251Z" fill="white"/>
<path d="M517.444 453.036C517.24 452.913 516.844 452.826 516.844 452.826C516.844 452.826 516.995 452.449 517.002 452.21C517.012 451.909 516.991 451.58 516.991 451.58C516.991 451.58 517.249 451.791 517.509 451.94C517.735 452.07 518.109 452.149 518.109 452.149C518.109 452.149 517.971 452.506 517.95 452.765C517.928 453.032 518.006 453.478 518.006 453.478C518.006 453.478 517.676 453.175 517.444 453.036Z" fill="white"/>
<path d="M464.545 392.001C463.951 392.085 462.959 392.588 462.959 392.588C462.959 392.588 462.888 391.474 462.644 390.927C462.335 390.234 461.927 389.532 461.927 389.532C461.927 389.532 462.743 389.55 463.491 389.427C464.145 389.32 465.077 388.841 465.077 388.841C465.077 388.841 465.157 389.883 465.392 390.502C465.635 391.141 466.299 392.004 466.299 392.004C466.299 392.004 465.222 391.906 464.545 392.001Z" fill="white"/>
<path d="M336.028 332.656C335.481 332.408 334.374 332.302 334.374 332.302C334.374 332.302 334.911 331.324 334.998 330.73C335.107 329.979 335.139 329.169 335.139 329.169C335.139 329.169 335.818 329.621 336.516 329.918C337.125 330.177 338.17 330.271 338.17 330.271C338.17 330.271 337.679 331.195 337.546 331.843C337.409 332.513 337.508 333.597 337.508 333.597C337.508 333.597 336.65 332.938 336.028 332.656Z" fill="white"/>
<path d="M494.718 267.285C494.171 267.037 493.064 266.931 493.064 266.931C493.064 266.931 493.601 265.953 493.687 265.359C493.797 264.608 493.829 263.798 493.829 263.798C493.829 263.798 494.508 264.25 495.206 264.547C495.815 264.806 496.86 264.9 496.86 264.9C496.86 264.9 496.369 265.824 496.236 266.472C496.099 267.142 496.198 268.226 496.198 268.226C496.198 268.226 495.34 267.567 494.718 267.285Z" fill="white"/>
<path d="M408.949 254.903C408.35 254.925 407.312 255.325 407.312 255.325C407.312 255.325 407.355 254.21 407.168 253.64C406.931 252.919 406.597 252.18 406.597 252.18C406.597 252.18 407.406 252.281 408.164 252.235C408.825 252.195 409.801 251.813 409.801 251.813C409.801 251.813 409.774 252.858 409.945 253.498C410.121 254.158 410.694 255.084 410.694 255.084C410.694 255.084 409.633 254.877 408.949 254.903Z" fill="white"/>
<path d="M413.533 152.044C412.987 151.797 411.88 151.691 411.88 151.691C411.88 151.691 412.416 150.712 412.503 150.119C412.613 149.368 412.644 148.557 412.644 148.557C412.644 148.557 413.324 149.009 414.022 149.306C414.631 149.566 415.675 149.66 415.675 149.66C415.675 149.66 415.185 150.583 415.052 151.232C414.915 151.901 415.014 152.986 415.014 152.986C415.014 152.986 414.156 152.326 413.533 152.044Z" fill="white"/>
<path d="M389.878 118.384C389.825 118.119 389.892 117.622 389.892 117.622C389.892 117.622 389.407 117.757 389.138 117.735C388.797 117.706 388.438 117.637 388.438 117.637C388.438 117.637 388.567 117.982 388.626 118.318C388.677 118.613 388.612 119.081 388.612 119.081C388.612 119.081 389.067 118.96 389.366 118.968C389.674 118.976 390.14 119.131 390.14 119.131C390.14 119.131 389.938 118.687 389.878 118.384Z" fill="white"/>
<path opacity="0.35" d="M461.361 80.4337C461.308 80.1685 461.375 79.6713 461.375 79.6713C461.375 79.6713 460.89 79.8069 460.621 79.7844C460.28 79.7558 459.921 79.6866 459.921 79.6866C459.921 79.6866 460.05 80.0312 460.109 80.3681C460.16 80.6622 460.095 81.1305 460.095 81.1305C460.095 81.1305 460.55 81.0094 460.849 81.0174C461.157 81.0257 461.623 81.1801 461.623 81.1801C461.623 81.1801 461.421 80.7362 461.361 80.4337Z" fill="white"/>
<path opacity="0.35" d="M625.644 432.789C625.591 432.523 625.658 432.026 625.658 432.026C625.658 432.026 625.173 432.162 624.904 432.139C624.563 432.111 624.204 432.041 624.204 432.041C624.204 432.041 624.333 432.386 624.392 432.723C624.443 433.017 624.378 433.485 624.378 433.485C624.378 433.485 624.834 433.364 625.132 433.372C625.44 433.38 625.906 433.535 625.906 433.535C625.906 433.535 625.704 433.091 625.644 432.789Z" fill="white"/>
<path opacity="0.35" d="M249.728 664.327C249.675 664.062 249.742 663.564 249.742 663.564C249.742 663.564 249.257 663.7 248.988 663.678C248.647 663.649 248.288 663.58 248.288 663.58C248.288 663.58 248.417 663.924 248.476 664.261C248.527 664.555 248.462 665.024 248.462 665.024C248.462 665.024 248.918 664.903 249.216 664.911C249.524 664.919 249.99 665.073 249.99 665.073C249.99 665.073 249.788 664.629 249.728 664.327Z" fill="white"/>
<path d="M253.757 736.42C253.979 736.021 254.609 735.452 254.609 735.452C254.609 735.452 253.836 735.097 253.513 734.773C253.104 734.364 252.717 733.882 252.717 733.882C252.717 733.882 252.506 734.467 252.214 734.966C251.959 735.402 251.362 735.934 251.362 735.934C251.362 735.934 252.083 736.277 252.459 736.613C252.847 736.961 253.279 737.67 253.279 737.67C253.279 737.67 253.504 736.876 253.757 736.42Z" fill="white"/>
<path d="M262.329 180.328C261.73 180.297 260.66 180.603 260.66 180.603C260.66 180.603 260.803 179.496 260.667 178.912C260.495 178.173 260.228 177.407 260.228 177.407C260.228 177.407 261.025 177.58 261.784 177.601C262.446 177.62 263.452 177.326 263.452 177.326C263.452 177.326 263.333 178.365 263.446 179.018C263.562 179.691 264.051 180.664 264.051 180.664C264.051 180.664 263.012 180.364 262.329 180.328Z" fill="white"/>
<path d="M216.994 260.131C216.619 259.946 215.867 259.85 215.867 259.85C215.867 259.85 216.211 259.172 216.258 258.756C216.318 258.23 216.323 257.66 216.323 257.66C216.323 257.66 216.792 257.991 217.27 258.214C217.688 258.409 218.397 258.496 218.397 258.496C218.397 258.496 218.083 259.136 218.006 259.59C217.926 260.058 218.015 260.823 218.015 260.823C218.015 260.823 217.421 260.342 216.994 260.131Z" fill="white"/>
<path opacity="0.25" d="M16.7644 313.869C16.2181 313.621 15.1106 313.515 15.1106 313.515C15.1106 313.515 15.6474 312.537 15.7343 311.943C15.8442 311.193 15.8754 310.382 15.8754 310.382C15.8754 310.382 16.5549 310.834 17.2527 311.131C17.862 311.39 18.9064 311.484 18.9064 311.484C18.9064 311.484 18.4157 312.408 18.2828 313.056C18.1456 313.726 18.2447 314.81 18.2447 314.81C18.2447 314.81 17.3873 314.151 16.7644 313.869Z" fill="white"/>
<path d="M87.8898 455.329C87.5149 455.144 86.7628 455.047 86.7628 455.047C86.7628 455.047 87.107 454.369 87.154 453.953C87.2136 453.427 87.2187 452.858 87.2187 452.858C87.2187 452.858 87.6878 453.189 88.1663 453.412C88.5841 453.607 89.2933 453.693 89.2933 453.693C89.2933 453.693 88.9792 454.333 88.9021 454.787C88.8224 455.256 88.911 456.021 88.911 456.021C88.911 456.021 88.3173 455.54 87.8898 455.329Z" fill="white"/>
<path d="M475.463 588.107C475.088 587.922 474.336 587.825 474.336 587.825C474.336 587.825 474.68 587.148 474.727 586.732C474.786 586.205 474.791 585.636 474.791 585.636C474.791 585.636 475.261 585.967 475.739 586.19C476.157 586.385 476.866 586.472 476.866 586.472C476.866 586.472 476.552 587.112 476.475 587.565C476.395 588.034 476.484 588.799 476.484 588.799C476.484 588.799 475.89 588.318 475.463 588.107Z" fill="white"/>
<path d="M366.282 608.87C365.683 608.836 364.612 609.135 364.612 609.135C364.612 609.135 364.761 608.029 364.628 607.444C364.461 606.704 364.199 605.936 364.199 605.936C364.199 605.936 364.995 606.114 365.753 606.14C366.415 606.163 367.423 605.875 367.423 605.875C367.423 605.875 367.298 606.913 367.407 607.566C367.519 608.24 368.002 609.216 368.002 609.216C368.002 609.216 366.965 608.909 366.282 608.87Z" fill="white"/>
<path opacity="0.5" d="M356.108 717.874C355.733 717.689 354.981 717.593 354.981 717.593C354.981 717.593 355.325 716.915 355.372 716.499C355.431 715.973 355.436 715.403 355.436 715.403C355.436 715.403 355.906 715.734 356.384 715.957C356.802 716.152 357.511 716.239 357.511 716.239C357.511 716.239 357.197 716.879 357.12 717.332C357.04 717.801 357.129 718.566 357.129 718.566C357.129 718.566 356.535 718.085 356.108 717.874Z" fill="white"/>
<path opacity="0.3" d="M175.084 763.236C174.848 763.22 174.455 763.322 174.455 763.322C174.455 763.322 174.418 762.917 174.316 762.702C174.187 762.429 174.019 762.146 174.019 762.146C174.019 762.146 174.345 762.216 174.644 762.231C174.904 762.243 175.274 762.144 175.274 762.144C175.274 762.144 175.314 762.524 175.412 762.765C175.514 763.013 175.786 763.375 175.786 763.375C175.786 763.375 175.355 763.255 175.084 763.236Z" fill="white"/>
<path opacity="0.9" d="M69.0357 804.896C68.8854 804.712 68.5412 804.496 68.5412 804.496C68.5412 804.496 68.8111 804.192 68.8983 803.97C69.0086 803.689 69.0997 803.372 69.0997 803.372C69.0997 803.372 69.2722 803.658 69.4661 803.886C69.6353 804.084 69.9606 804.285 69.9606 804.285C69.9606 804.285 69.711 804.575 69.6035 804.811C69.4925 805.056 69.4158 805.501 69.4158 805.501C69.4158 805.501 69.207 805.105 69.0357 804.896Z" fill="white"/>
<path opacity="0.76" d="M124.149 608.579C123.26 608.206 121.442 608.081 121.442 608.081C121.442 608.081 122.364 606.502 122.531 605.553C122.741 604.353 122.825 603.061 122.825 603.061C122.825 603.061 123.925 603.754 125.061 604.199C126.053 604.588 127.768 604.697 127.768 604.697C127.768 604.697 126.924 606.187 126.68 607.225C126.428 608.297 126.548 610.02 126.548 610.02C126.548 610.02 125.163 609.004 124.149 608.579Z" fill="white"/>
<path opacity="0.5" d="M40.5091 592.475C39.9628 592.227 38.8553 592.122 38.8553 592.122C38.8553 592.122 39.3921 591.143 39.479 590.55C39.5889 589.799 39.6201 588.988 39.6201 588.988C39.6201 588.988 40.2995 589.44 40.9973 589.737C41.6066 589.997 42.6511 590.091 42.6511 590.091C42.6511 590.091 42.1603 591.014 42.0274 591.663C41.8902 592.332 41.9893 593.417 41.9893 593.417C41.9893 593.417 41.1319 592.757 40.5091 592.475Z" fill="white"/>
<path opacity="0.5" d="M3.06466 752.481C2.71908 752.324 2.01848 752.257 2.01848 752.257C2.01848 752.257 2.35805 751.638 2.41302 751.263C2.48255 750.788 2.50228 750.275 2.50228 750.275C2.50228 750.275 2.93209 750.561 3.3735 750.749C3.75895 750.913 4.41969 750.972 4.41969 750.972C4.41969 750.972 4.10923 751.557 4.02515 751.967C3.93835 752.39 4.00105 753.076 4.00105 753.076C4.00105 753.076 3.45869 752.659 3.06466 752.481Z" fill="white"/>
<path d="M24.152 686.871C23.9485 686.748 23.5516 686.661 23.5516 686.661C23.5516 686.661 23.7032 686.284 23.7105 686.046C23.7197 685.744 23.6987 685.415 23.6987 685.415C23.6987 685.415 23.9574 685.626 24.2166 685.775C24.4429 685.905 24.8169 685.985 24.8169 685.985C24.8169 685.985 24.6795 686.341 24.6581 686.6C24.6359 686.868 24.714 687.313 24.714 687.313C24.714 687.313 24.384 687.011 24.152 686.871Z" fill="white"/>
</svg>
