<svg width="940" height="632" viewBox="0 0 940 632" fill="none" xmlns="http://www.w3.org/2000/svg">
<g clip-path="url(#clip0_869_2884)">
<path d="M21.6451 380.572C21.508 381.524 20.6949 383.113 20.6949 383.113C20.6949 383.113 22.4813 383.232 23.3589 383.627C24.469 384.127 25.5919 384.785 25.5919 384.785C25.5919 384.785 25.5676 383.476 25.7684 382.276C25.9438 381.228 26.7187 379.734 26.7187 379.734C26.7187 379.734 25.0464 379.601 24.0546 379.22C23.0308 378.827 21.6502 377.757 21.6502 377.757C21.6502 377.757 21.8014 379.486 21.6451 380.572Z" fill="url(#paint0_linear_869_2884)"/>
<path d="M81.9192 67.7719C81.7187 69.0101 80.6114 71.0876 80.6114 71.0876C80.6114 71.0876 82.9705 71.2058 84.1227 71.7005C85.58 72.3262 87.0511 73.1566 87.0511 73.1566C87.0511 73.1566 87.0455 71.4592 87.3354 69.8985C87.5885 68.5357 88.6432 66.5828 88.6432 66.5828C88.6432 66.5828 86.4353 66.4433 85.1319 65.97C83.7865 65.4814 81.9832 64.1209 81.9832 64.1209C81.9832 64.1209 82.1479 66.3601 81.9192 67.7719Z" fill="url(#paint1_linear_869_2884)"/>
<path d="M197.615 211.925C197.478 212.878 196.665 214.466 196.665 214.466C196.665 214.466 198.451 214.586 199.329 214.981C200.439 215.48 201.562 216.138 201.562 216.138C201.562 216.138 201.537 214.829 201.738 213.629C201.914 212.581 202.688 211.088 202.688 211.088C202.688 211.088 201.016 210.954 200.024 210.574C199.001 210.181 197.62 209.11 197.62 209.11C197.62 209.11 197.771 210.839 197.615 211.925Z" fill="url(#paint2_linear_869_2884)"/>
<path d="M120.651 225.771C120.64 226.152 120.415 226.763 120.415 226.763C120.415 226.763 121.056 226.884 121.385 227.08C121.801 227.328 122.227 227.641 122.227 227.641C122.227 227.641 122.165 227.108 122.188 226.63C122.208 226.212 122.423 225.637 122.423 225.637C122.423 225.637 121.822 225.515 121.454 225.32C121.073 225.119 120.538 224.629 120.538 224.629C120.538 224.629 120.662 225.336 120.651 225.771Z" fill="url(#paint3_linear_869_2884)"/>
<path d="M157.493 350.004C156.868 350.735 155.33 351.642 155.33 351.642C155.33 351.642 156.775 352.699 157.305 353.502C157.975 354.519 158.571 355.676 158.571 355.676C158.571 355.676 159.251 354.557 160.063 353.651C160.773 352.86 162.227 352.013 162.227 352.013C162.227 352.013 160.886 351.005 160.252 350.153C159.598 349.273 159.005 347.63 159.005 347.63C159.005 347.63 158.207 349.171 157.493 350.004Z" fill="url(#paint4_linear_869_2884)"/>
<path d="M126.75 575.022C126.613 575.975 125.799 577.564 125.799 577.564C125.799 577.564 127.586 577.683 128.463 578.078C129.574 578.578 130.696 579.236 130.696 579.236C130.696 579.236 130.672 577.927 130.873 576.727C131.048 575.679 131.823 574.185 131.823 574.185C131.823 574.185 130.151 574.051 129.159 573.671C128.135 573.278 126.755 572.208 126.755 572.208C126.755 572.208 126.906 573.936 126.75 575.022Z" fill="url(#paint5_linear_869_2884)"/>
<path d="M352.178 416.908C352.041 417.86 351.228 419.449 351.228 419.449C351.228 419.449 353.014 419.568 353.892 419.963C355.002 420.463 356.125 421.121 356.125 421.121C356.125 421.121 356.101 419.812 356.302 418.612C356.477 417.564 357.252 416.071 357.252 416.071C357.252 416.071 355.58 415.937 354.588 415.556C353.564 415.164 352.183 414.093 352.183 414.093C352.183 414.093 352.335 415.822 352.178 416.908Z" fill="url(#paint6_linear_869_2884)"/>
<path d="M294.854 543.57C294.306 544.361 292.868 545.419 292.868 545.419C292.868 545.419 294.414 546.323 295.022 547.069C295.792 548.012 296.503 549.102 296.503 549.102C296.503 549.102 297.066 547.92 297.782 546.936C298.407 546.077 299.767 545.086 299.767 545.086C299.767 545.086 298.33 544.22 297.613 543.437C296.872 542.628 296.115 541.054 296.115 541.054C296.115 541.054 295.478 542.668 294.854 543.57Z" fill="url(#paint7_linear_869_2884)"/>
<path d="M437.889 626.196C437.752 627.149 436.939 628.738 436.939 628.738C436.939 628.738 438.725 628.857 439.603 629.252C440.713 629.752 441.836 630.409 441.836 630.409C441.836 630.409 441.812 629.1 442.013 627.9C442.188 626.852 442.963 625.359 442.963 625.359C442.963 625.359 441.291 625.225 440.299 624.845C439.275 624.452 437.894 623.382 437.894 623.382C437.894 623.382 438.046 625.11 437.889 626.196Z" fill="url(#paint8_linear_869_2884)"/>
<path opacity="0.35" d="M576.017 623.369C576.331 623.67 577.06 624.009 577.06 624.009C577.06 624.009 576.459 624.547 576.256 624.931C576 625.417 575.784 625.962 575.784 625.962C575.784 625.962 575.429 625.49 575.025 625.119C574.672 624.796 573.982 624.48 573.982 624.48C573.982 624.48 574.539 623.968 574.786 623.558C575.041 623.134 575.235 622.371 575.235 622.371C575.235 622.371 575.661 623.027 576.017 623.369Z" fill="url(#paint9_linear_869_2884)"/>
<path opacity="0.35" d="M241.465 96.9563C241.778 97.2568 242.508 97.5959 242.508 97.5959C242.508 97.5959 241.906 98.134 241.704 98.5179C241.448 99.0036 241.231 99.5491 241.231 99.5491C241.231 99.5491 240.877 99.0771 240.472 98.7063C240.119 98.3825 239.429 98.0667 239.429 98.0667C239.429 98.0667 239.986 97.5551 240.233 97.1447C240.488 96.721 240.682 95.9574 240.682 95.9574C240.682 95.9574 241.108 96.6137 241.465 96.9563Z" fill="url(#paint10_linear_869_2884)"/>
<path d="M801.627 306.988C801.489 307.94 800.676 309.529 800.676 309.529C800.676 309.529 802.463 309.648 803.34 310.043C804.45 310.543 805.573 311.201 805.573 311.201C805.573 311.201 805.549 309.892 805.75 308.692C805.925 307.644 806.7 306.151 806.7 306.151C806.7 306.151 805.028 306.017 804.036 305.636C803.012 305.244 801.632 304.173 801.632 304.173C801.632 304.173 801.783 305.902 801.627 306.988Z" fill="url(#paint11_linear_869_2884)"/>
<path opacity="0.35" d="M702.712 243.871C703.025 244.171 703.755 244.511 703.755 244.511C703.755 244.511 703.153 245.049 702.951 245.433C702.695 245.918 702.478 246.464 702.478 246.464C702.478 246.464 702.124 245.992 701.719 245.621C701.366 245.297 700.676 244.981 700.676 244.981C700.676 244.981 701.233 244.47 701.48 244.059C701.735 243.636 701.929 242.872 701.929 242.872C701.929 242.872 702.355 243.528 702.712 243.871Z" fill="url(#paint12_linear_869_2884)"/>
<path d="M608.713 176.164C609.445 176.21 610.757 175.849 610.757 175.849C610.757 175.849 610.569 177.201 610.728 177.917C610.93 178.823 611.247 179.764 611.247 179.764C611.247 179.764 610.273 179.543 609.346 179.507C608.537 179.475 607.302 179.822 607.302 179.822C607.302 179.822 607.461 178.553 607.33 177.754C607.196 176.929 606.611 175.732 606.611 175.732C606.611 175.732 607.878 176.113 608.713 176.164Z" fill="url(#paint13_linear_869_2884)"/>
<path d="M878.347 134.169C877.877 135.009 876.547 136.199 876.547 136.199C876.547 136.199 878.171 136.953 878.848 137.637C879.704 138.502 880.515 139.52 880.515 139.52C880.515 139.52 880.963 138.29 881.582 137.242C882.123 136.328 883.383 135.213 883.383 135.213C883.383 135.213 881.87 134.486 881.082 133.775C880.268 133.04 879.364 131.545 879.364 131.545C879.364 131.545 878.884 133.212 878.347 134.169Z" fill="url(#paint14_linear_869_2884)"/>
<path opacity="0.5" d="M722.177 53.7922C722.103 54.4589 721.584 55.5592 721.584 55.5592C721.584 55.5592 722.798 55.6792 723.401 55.9748C724.164 56.3486 724.938 56.8338 724.938 56.8338C724.938 56.8338 724.895 55.9132 725.007 55.0738C725.105 54.3408 725.6 53.3068 725.6 53.3068C725.6 53.3068 724.463 53.1788 723.783 52.8913C723.081 52.5945 722.123 51.814 722.123 51.814C722.123 51.814 722.261 53.0321 722.177 53.7922Z" fill="url(#paint15_linear_869_2884)"/>
<path opacity="0.3" d="M504.515 259.382C504.333 259.717 503.854 260.159 503.854 260.159C503.854 260.159 504.37 260.558 504.574 260.882C504.832 261.292 505.07 261.764 505.07 261.764C505.07 261.764 505.256 261.262 505.494 260.846C505.702 260.483 506.155 260.069 506.155 260.069C506.155 260.069 505.675 259.687 505.435 259.346C505.188 258.994 504.934 258.314 504.934 258.314C504.934 258.314 504.723 259 504.515 259.382Z" fill="url(#paint16_linear_869_2884)"/>
<path opacity="0.9" d="M356.606 366.796C356.725 367.158 356.719 367.809 356.719 367.809C356.719 367.809 357.363 367.707 357.739 367.781C358.214 367.874 358.721 368.025 358.721 368.025C358.721 368.025 358.483 367.544 358.343 367.086C358.221 366.686 358.23 366.072 358.23 366.072C358.23 366.072 357.623 366.16 357.21 366.101C356.784 366.04 356.115 365.759 356.115 365.759C356.115 365.759 356.47 366.383 356.606 366.796Z" fill="url(#paint17_linear_869_2884)"/>
<path opacity="0.76" d="M669.644 461.81C669.38 463.334 667.978 465.9 667.978 465.9C667.978 465.9 670.91 466.017 672.337 466.611C674.141 467.363 675.96 468.366 675.96 468.366C675.96 468.366 675.974 466.28 676.353 464.359C676.683 462.681 678.018 460.269 678.018 460.269C678.018 460.269 675.274 460.124 673.659 459.557C671.992 458.973 669.766 457.322 669.766 457.322C669.766 457.322 669.945 460.072 669.644 461.81Z" fill="url(#paint18_linear_869_2884)"/>
<path opacity="0.5" d="M619.187 588.808C619.05 589.76 618.237 591.349 618.237 591.349C618.237 591.349 620.023 591.468 620.901 591.863C622.011 592.363 623.134 593.021 623.134 593.021C623.134 593.021 623.11 591.712 623.31 590.512C623.486 589.464 624.261 587.971 624.261 587.971C624.261 587.971 622.588 587.837 621.597 587.456C620.573 587.064 619.192 585.993 619.192 585.993C619.192 585.993 619.343 587.722 619.187 588.808Z" fill="url(#paint19_linear_869_2884)"/>
<path opacity="0.5" d="M370.506 501.259C370.419 501.862 369.904 502.867 369.904 502.867C369.904 502.867 371.034 502.942 371.59 503.192C372.292 503.508 373.002 503.925 373.002 503.925C373.002 503.925 372.987 503.096 373.114 502.337C373.225 501.674 373.715 500.73 373.715 500.73C373.715 500.73 372.657 500.645 372.03 500.404C371.382 500.156 370.509 499.479 370.509 499.479C370.509 499.479 370.604 500.572 370.506 501.259Z" fill="url(#paint20_linear_869_2884)"/>
<path d="M477.429 529.406C477.419 529.787 477.194 530.398 477.194 530.398C477.194 530.398 477.835 530.519 478.163 530.715C478.579 530.963 479.006 531.276 479.006 531.276C479.006 531.276 478.944 530.744 478.967 530.265C478.986 529.847 479.202 529.272 479.202 529.272C479.202 529.272 478.601 529.15 478.232 528.955C477.852 528.754 477.316 528.264 477.316 528.264C477.316 528.264 477.44 528.971 477.429 529.406Z" fill="url(#paint21_linear_869_2884)"/>
</g>
<defs>
<linearGradient id="paint0_linear_869_2884" x1="25.7443" y1="375.461" x2="17.5852" y2="381.451" gradientUnits="userSpaceOnUse">
<stop stop-color="#FF00E5"/>
<stop offset="1" stop-color="#7000FF"/>
</linearGradient>
<linearGradient id="paint1_linear_869_2884" x1="87.442" y1="61.0592" x2="76.6051" y2="69.0909" gradientUnits="userSpaceOnUse">
<stop stop-color="#FF00E5"/>
<stop offset="1" stop-color="#7000FF"/>
</linearGradient>
<linearGradient id="paint2_linear_869_2884" x1="201.714" y1="206.814" x2="193.555" y2="212.805" gradientUnits="userSpaceOnUse">
<stop stop-color="#FF00E5"/>
<stop offset="1" stop-color="#7000FF"/>
</linearGradient>
<linearGradient id="paint3_linear_869_2884" x1="121.903" y1="223.863" x2="119.122" y2="225.792" gradientUnits="userSpaceOnUse">
<stop stop-color="#FF00E5"/>
<stop offset="1" stop-color="#7000FF"/>
</linearGradient>
<linearGradient id="paint4_linear_869_2884" x1="163.692" y1="347.882" x2="153.594" y2="348.573" gradientUnits="userSpaceOnUse">
<stop stop-color="#FF00E5"/>
<stop offset="1" stop-color="#7000FF"/>
</linearGradient>
<linearGradient id="paint5_linear_869_2884" x1="130.849" y1="569.912" x2="122.69" y2="575.902" gradientUnits="userSpaceOnUse">
<stop stop-color="#FF00E5"/>
<stop offset="1" stop-color="#7000FF"/>
</linearGradient>
<linearGradient id="paint6_linear_869_2884" x1="356.278" y1="411.797" x2="348.118" y2="417.788" gradientUnits="userSpaceOnUse">
<stop stop-color="#FF00E5"/>
<stop offset="1" stop-color="#7000FF"/>
</linearGradient>
<linearGradient id="paint7_linear_869_2884" x1="300.804" y1="540.827" x2="290.828" y2="542.544" gradientUnits="userSpaceOnUse">
<stop stop-color="#FF00E5"/>
<stop offset="1" stop-color="#7000FF"/>
</linearGradient>
<linearGradient id="paint8_linear_869_2884" x1="441.988" y1="621.085" x2="433.829" y2="627.076" gradientUnits="userSpaceOnUse">
<stop stop-color="#FF00E5"/>
<stop offset="1" stop-color="#7000FF"/>
</linearGradient>
<linearGradient id="paint9_linear_869_2884" x1="573.142" y1="622.691" x2="577.705" y2="622.556" gradientUnits="userSpaceOnUse">
<stop stop-color="#FF00E5"/>
<stop offset="1" stop-color="#7000FF"/>
</linearGradient>
<linearGradient id="paint10_linear_869_2884" x1="238.589" y1="96.2773" x2="243.152" y2="96.1424" gradientUnits="userSpaceOnUse">
<stop stop-color="#FF00E5"/>
<stop offset="1" stop-color="#7000FF"/>
</linearGradient>
<linearGradient id="paint11_linear_869_2884" x1="805.726" y1="301.877" x2="797.567" y2="307.868" gradientUnits="userSpaceOnUse">
<stop stop-color="#FF00E5"/>
<stop offset="1" stop-color="#7000FF"/>
</linearGradient>
<linearGradient id="paint12_linear_869_2884" x1="699.837" y1="243.192" x2="704.399" y2="243.057" gradientUnits="userSpaceOnUse">
<stop stop-color="#FF00E5"/>
<stop offset="1" stop-color="#7000FF"/>
</linearGradient>
<linearGradient id="paint13_linear_869_2884" x1="604.262" y1="178.433" x2="609.998" y2="173.27" gradientUnits="userSpaceOnUse">
<stop stop-color="#FF00E5"/>
<stop offset="1" stop-color="#7000FF"/>
</linearGradient>
<linearGradient id="paint14_linear_869_2884" x1="884.01" y1="130.874" x2="874.243" y2="133.53" gradientUnits="userSpaceOnUse">
<stop stop-color="#FF00E5"/>
<stop offset="1" stop-color="#7000FF"/>
</linearGradient>
<linearGradient id="paint15_linear_869_2884" x1="724.852" y1="50.2831" x2="719.376" y2="54.2366" gradientUnits="userSpaceOnUse">
<stop stop-color="#FF00E5"/>
<stop offset="1" stop-color="#7000FF"/>
</linearGradient>
<linearGradient id="paint16_linear_869_2884" x1="506.497" y1="258.252" x2="503.144" y2="258.706" gradientUnits="userSpaceOnUse">
<stop stop-color="#FF00E5"/>
<stop offset="1" stop-color="#7000FF"/>
</linearGradient>
<linearGradient id="paint17_linear_869_2884" x1="357.142" y1="364.578" x2="355.174" y2="367.331" gradientUnits="userSpaceOnUse">
<stop stop-color="#FF00E5"/>
<stop offset="1" stop-color="#7000FF"/>
</linearGradient>
<linearGradient id="paint18_linear_869_2884" x1="676.59" y1="453.495" x2="663.077" y2="463.57" gradientUnits="userSpaceOnUse">
<stop stop-color="#FF00E5"/>
<stop offset="1" stop-color="#7000FF"/>
</linearGradient>
<linearGradient id="paint19_linear_869_2884" x1="623.286" y1="583.697" x2="615.127" y2="589.688" gradientUnits="userSpaceOnUse">
<stop stop-color="#FF00E5"/>
<stop offset="1" stop-color="#7000FF"/>
</linearGradient>
<linearGradient id="paint20_linear_869_2884" x1="373.099" y1="498.026" x2="367.937" y2="501.816" gradientUnits="userSpaceOnUse">
<stop stop-color="#FF00E5"/>
<stop offset="1" stop-color="#7000FF"/>
</linearGradient>
<linearGradient id="paint21_linear_869_2884" x1="478.681" y1="527.498" x2="475.9" y2="529.427" gradientUnits="userSpaceOnUse">
<stop stop-color="#FF00E5"/>
<stop offset="1" stop-color="#7000FF"/>
</linearGradient>
<clipPath id="clip0_869_2884">
<rect width="940" height="632" rx="60" fill="white"/>
</clipPath>
</defs>
</svg>
