<svg width="58" height="48" viewBox="0 0 58 48" fill="none" xmlns="http://www.w3.org/2000/svg">
<path d="M0.876002 22.3274C6.80958 19.0615 13.433 16.3356 19.6217 13.5959C30.2685 9.1084 40.9577 4.6987 51.7547 0.59332C53.8554 -0.106154 57.6299 -0.790116 58 2.3206C57.7972 6.72396 56.9636 11.1015 56.3918 15.4791C54.9404 25.1058 53.2628 34.6996 51.6269 44.2946C51.0632 47.4907 47.0566 49.1451 44.4929 47.0998C38.3318 42.9413 32.1233 38.8231 26.0408 34.5681C24.0483 32.545 25.896 29.6397 27.6754 28.1951C32.7499 23.1979 38.1315 18.9521 42.9408 13.6967C44.2381 10.5664 40.405 13.2045 39.1406 14.0129C32.1936 18.7967 25.4166 23.8725 18.0923 28.0768C14.351 30.1347 9.99048 28.3761 6.2509 27.2278C2.89798 25.8405 -2.01541 24.4429 0.875663 22.3278L0.876002 22.3274Z" fill="url(#paint0_linear_848_2654)"/>
<defs>
<linearGradient id="paint0_linear_848_2654" x1="-10.4199" y1="-6.13736e-06" x2="72.7306" y2="14.3929" gradientUnits="userSpaceOnUse">
<stop stop-color="#FF00E5"/>
<stop offset="1" stop-color="#7000FF"/>
</linearGradient>
</defs>
</svg>
