<svg width="62" height="48" viewBox="0 0 62 48" fill="none" xmlns="http://www.w3.org/2000/svg">
<path d="M61 5.69368C58.7568 6.65583 56.347 7.30594 53.8136 7.59979C56.4276 6.0858 58.3832 3.70296 59.3156 0.895894C56.8597 2.3079 54.1718 3.30179 51.3688 3.83437C49.4839 1.88631 46.9873 0.595093 44.2666 0.161207C41.5458 -0.27268 38.7532 0.175034 36.3223 1.43484C33.8914 2.69464 31.9582 4.69606 30.8228 7.12834C29.6874 9.56063 29.4134 12.2877 30.0433 14.8862C25.067 14.6443 20.1989 13.3924 15.7549 11.2115C11.3108 9.0307 7.39017 5.96974 4.24738 2.22731C3.17277 4.02161 2.55488 6.10194 2.55488 8.31751C2.55368 10.312 3.0611 12.276 4.03213 14.0351C5.00316 15.7943 6.40777 17.2943 8.12133 18.402C6.13406 18.3407 4.19062 17.821 2.45279 16.8859V17.0419C2.45259 19.8393 3.45226 22.5506 5.28218 24.7158C7.1121 26.8809 9.65955 28.3666 12.4923 28.9207C10.6488 29.4036 8.71596 29.4747 6.83987 29.1287C7.6391 31.5357 9.19593 33.6405 11.2924 35.1485C13.3889 36.6565 15.9201 37.4921 18.5316 37.5385C14.0984 40.9071 8.62341 42.7344 2.9874 42.7263C1.98904 42.7266 0.991529 42.6702 0 42.5573C5.72087 46.1177 12.3804 48.0073 19.1817 48C42.2051 48 54.7915 29.5422 54.7915 13.534C54.7915 13.0139 54.778 12.4886 54.7539 11.9685C57.2021 10.2548 59.3153 8.1326 60.9946 5.70148L61 5.69368Z" fill="url(#paint0_linear_848_2645)"/>
<defs>
<linearGradient id="paint0_linear_848_2645" x1="16.9212" y1="9.6" x2="46.1455" y2="32.5849" gradientUnits="userSpaceOnUse">
<stop stop-color="#FF00E5"/>
<stop offset="1" stop-color="#7000FF"/>
</linearGradient>
</defs>
</svg>
