<svg width="32" height="32" viewBox="0 0 32 32" fill="none" xmlns="http://www.w3.org/2000/svg">
<path fill-rule="evenodd" clip-rule="evenodd" d="M32 16C32 24.7751 24.8989 32 16 32C7.10108 32 0 24.7751 0 16C0 7.22494 7.10108 0 16 0C24.8989 0 32 7.22494 32 16ZM16 30.2222C23.8225 30.2222 30.1639 23.8547 30.1639 16C30.1639 8.14528 23.8225 1.77778 16 1.77778C8.17747 1.77778 1.83607 8.14528 1.83607 16C1.83607 23.8547 8.17747 30.2222 16 30.2222Z" fill="url(#paint0_linear_848_2564)"/>
<path fill-rule="evenodd" clip-rule="evenodd" d="M30.1639 16C30.1639 23.8547 23.8225 30.2222 16 30.2222C8.17747 30.2222 1.83607 23.8547 1.83607 16C1.83607 8.14528 8.17747 1.77778 16 1.77778C23.8225 1.77778 30.1639 8.14528 30.1639 16ZM22.115 11.2166C22.7795 11.1309 23.4116 10.9413 24 10.6607L23.9986 10.6629C23.5581 11.372 23.0038 11.991 22.3617 12.4908C22.368 12.6425 22.3715 12.7957 22.3715 12.9474C22.3715 17.6165 19.0702 23 13.0313 23C11.2473 23.0021 9.50056 22.451 8 21.4125C8.26007 21.4455 8.52172 21.4619 8.78358 21.4618C10.2619 21.4642 11.6979 20.9312 12.8607 19.9487C12.1758 19.9352 11.5118 19.6915 10.9619 19.2516C10.412 18.8118 10.0037 18.1979 9.79406 17.4959C10.2862 17.5968 10.7931 17.5761 11.2767 17.4352C10.5337 17.2736 9.86547 16.8403 9.38549 16.2088C8.90551 15.5773 8.6433 14.7865 8.64335 13.9706V13.9251C9.09918 14.1978 9.60893 14.3494 10.1302 14.3672C9.68073 14.0442 9.3123 13.6067 9.05761 13.0936C8.80291 12.5805 8.66982 12.0077 8.67013 11.4259C8.67013 10.7797 8.8322 10.173 9.11407 9.64963C9.93841 10.7412 10.9668 11.634 12.1324 12.27C13.2981 12.9061 14.575 13.2713 15.8802 13.3418C15.715 12.5839 15.7869 11.7885 16.0847 11.0791C16.3825 10.3697 16.8895 9.78594 17.5272 9.4185C18.1648 9.05105 18.8973 8.92047 19.6109 9.04702C20.3245 9.17357 20.9794 9.55017 21.4738 10.1184C22.209 9.96302 22.914 9.67314 23.5582 9.2613C23.3136 10.08 22.8007 10.775 22.115 11.2166Z" fill="url(#paint1_linear_848_2564)"/>
<defs>
<linearGradient id="paint0_linear_848_2564" x1="16" y1="1.77778" x2="16" y2="30.2222" gradientUnits="userSpaceOnUse">
<stop stop-color="#FF00E5"/>
<stop offset="1" stop-color="#7000FF"/>
</linearGradient>
<linearGradient id="paint1_linear_848_2564" x1="16" y1="1.77778" x2="16" y2="30.2222" gradientUnits="userSpaceOnUse">
<stop stop-color="#FF00E5"/>
<stop offset="1" stop-color="#7000FF"/>
</linearGradient>
</defs>
</svg>
