<svg width="33" height="32" viewBox="0 0 33 32" fill="none" xmlns="http://www.w3.org/2000/svg">
<path d="M24.5 10.6607C23.9116 10.9413 23.2795 11.1309 22.615 11.2166C23.3007 10.775 23.8136 10.08 24.0582 9.2613C23.414 9.67314 22.709 9.96302 21.9738 10.1184C21.4794 9.55017 20.8245 9.17357 20.1109 9.04702C19.3973 8.92047 18.6648 9.05105 18.0272 9.4185C17.3895 9.78594 16.8825 10.3697 16.5847 11.0791C16.2869 11.7885 16.215 12.5839 16.3802 13.3418C15.075 13.2713 13.7981 12.9061 12.6324 12.27C11.4668 11.634 10.4384 10.7412 9.61407 9.64963C9.3322 10.173 9.17013 10.7797 9.17013 11.4259C9.16982 12.0077 9.30291 12.5805 9.55761 13.0936C9.8123 13.6067 10.1807 14.0442 10.6302 14.3672C10.1089 14.3494 9.59918 14.1978 9.14335 13.9251V13.9706C9.1433 14.7865 9.40551 15.5773 9.88549 16.2088C10.3655 16.8403 11.0337 17.2736 11.7767 17.4352C11.2931 17.5761 10.7862 17.5968 10.2941 17.4959C10.5037 18.1979 10.912 18.8118 11.4619 19.2516C12.0118 19.6915 12.6758 19.9352 13.3607 19.9487C12.1979 20.9312 10.7619 21.4642 9.28358 21.4618C9.02172 21.4619 8.76007 21.4455 8.5 21.4125C10.0006 22.451 11.7473 23.0021 13.5313 23C19.5702 23 22.8715 17.6165 22.8715 12.9474C22.8715 12.7957 22.868 12.6425 22.8617 12.4908C23.5038 11.991 24.0581 11.372 24.4986 10.6629L24.5 10.6607Z" fill="url(#paint0_linear_844_1386)"/>
<path fill-rule="evenodd" clip-rule="evenodd" d="M32.5 16C32.5 24.7751 25.3989 32 16.5 32C7.60108 32 0.5 24.7751 0.5 16C0.5 7.22494 7.60108 0 16.5 0C25.3989 0 32.5 7.22494 32.5 16ZM16.5 30.2222C24.3225 30.2222 30.6639 23.8547 30.6639 16C30.6639 8.14528 24.3225 1.77778 16.5 1.77778C8.67747 1.77778 2.33607 8.14528 2.33607 16C2.33607 23.8547 8.67747 30.2222 16.5 30.2222Z" fill="url(#paint1_linear_844_1386)"/>
<defs>
<linearGradient id="paint0_linear_844_1386" x1="16.5" y1="0" x2="16.5" y2="32" gradientUnits="userSpaceOnUse">
<stop stop-color="#FF00E5"/>
<stop offset="1" stop-color="#7000FF"/>
</linearGradient>
<linearGradient id="paint1_linear_844_1386" x1="16.5" y1="0" x2="16.5" y2="32" gradientUnits="userSpaceOnUse">
<stop stop-color="#FF00E5"/>
<stop offset="1" stop-color="#7000FF"/>
</linearGradient>
</defs>
</svg>
