<svg width="60" height="60" viewBox="0 0 60 60" fill="none" xmlns="http://www.w3.org/2000/svg">
<path d="M30.375 19.2388C33.9241 19.2388 36.3348 21.5022 36.6027 24.8237C36.6228 25.1049 36.8571 25.3192 37.1384 25.3192H40.9353C41.1094 25.3192 41.25 25.1786 41.25 25.0045C41.25 19.1987 36.6696 15.1339 30.3549 15.1339C22.9955 15.1339 18.75 20.1027 18.75 28.3125V31.8147C18.75 39.9643 22.9955 44.8661 30.3549 44.8661C36.6496 44.8661 41.25 40.9286 41.25 35.3973C41.25 35.2232 41.1094 35.0826 40.9353 35.0826H37.1317C36.8504 35.0826 36.6228 35.2969 36.596 35.5714C36.3147 38.6585 33.9107 40.7812 30.3683 40.7812C25.9955 40.7812 23.5312 37.5737 23.5312 31.8348V28.3125C23.5379 22.4866 26.0089 19.2388 30.375 19.2388Z" fill="url(#paint0_linear_844_1264)"/>
<path d="M30 0C24.0666 0 18.2664 1.75947 13.3329 5.05591C8.39943 8.35235 4.55426 13.0377 2.28363 18.5195C0.0129986 24.0013 -0.581101 30.0333 0.576455 35.8527C1.73401 41.6721 4.59123 47.0176 8.78681 51.2132C12.9824 55.4088 18.3279 58.266 24.1473 59.4235C29.9667 60.5811 35.9987 59.987 41.4805 57.7164C46.9623 55.4457 51.6477 51.6006 54.9441 46.6671C58.2405 41.7336 60 35.9334 60 30C59.9909 22.0463 56.8273 14.421 51.2032 8.79684C45.579 3.17272 37.9537 0.00909799 30 0ZM30 57.5C24.561 57.5 19.2442 55.8871 14.7218 52.8654C10.1995 49.8437 6.67473 45.5488 4.59333 40.5238C2.51192 35.4988 1.96732 29.9695 3.02842 24.635C4.08951 19.3005 6.70863 14.4005 10.5546 10.5546C14.4005 6.70862 19.3006 4.0895 24.635 3.0284C29.9695 1.96731 35.4988 2.5119 40.5238 4.59331C45.5488 6.67472 49.8437 10.1995 52.8654 14.7218C55.8872 19.2442 57.5 24.561 57.5 30C57.4918 37.2909 54.5918 44.2809 49.4363 49.4363C44.2809 54.5918 37.2909 57.4918 30 57.5Z" fill="url(#paint1_linear_844_1264)"/>
<path d="M30 5.80645C25.215 5.80645 20.5374 7.22538 16.5588 9.8838C12.5802 12.5422 9.47924 16.3207 7.64809 20.7415C5.81693 25.1623 5.33782 30.0268 6.27133 34.7199C7.20485 39.413 9.50906 43.7239 12.8926 47.1074C16.2761 50.4909 20.587 52.7952 25.2801 53.7287C29.9732 54.6622 34.8377 54.1831 39.2585 52.3519C43.6793 50.5208 47.4578 47.4198 50.1162 43.4412C52.7746 39.4626 54.1935 34.785 54.1935 30C54.1863 23.5857 51.635 17.4362 47.0994 12.9006C42.5638 8.36503 36.4143 5.81374 30 5.80645ZM30 51.6468C25.7187 51.6468 21.5335 50.3773 17.9737 47.9987C14.4139 45.6201 11.6393 42.2393 10.0009 38.2839C8.36252 34.3284 7.93384 29.976 8.76909 25.7769C9.60434 21.5778 11.666 17.7207 14.6934 14.6934C17.7207 11.666 21.5778 9.60433 25.7769 8.76908C29.976 7.93383 34.3285 8.36251 38.2839 10.0009C42.2393 11.6393 45.6201 14.4138 47.9987 17.9736C50.3773 21.5335 51.6469 25.7186 51.6469 30C51.6405 35.7391 49.3578 41.2414 45.2996 45.2996C41.2414 49.3577 35.7391 51.6404 30 51.6468Z" fill="url(#paint2_linear_844_1264)"/>
<defs>
<linearGradient id="paint0_linear_844_1264" x1="30" y1="0" x2="30" y2="60" gradientUnits="userSpaceOnUse">
<stop stop-color="#FF00E5"/>
<stop offset="1" stop-color="#7000FF"/>
</linearGradient>
<linearGradient id="paint1_linear_844_1264" x1="30" y1="0" x2="30" y2="60" gradientUnits="userSpaceOnUse">
<stop stop-color="#FF00E5"/>
<stop offset="1" stop-color="#7000FF"/>
</linearGradient>
<linearGradient id="paint2_linear_844_1264" x1="30" y1="0" x2="30" y2="60" gradientUnits="userSpaceOnUse">
<stop stop-color="#FF00E5"/>
<stop offset="1" stop-color="#7000FF"/>
</linearGradient>
</defs>
</svg>
