<svg width="60" height="60" viewBox="0 0 60 60" fill="none" xmlns="http://www.w3.org/2000/svg">
<path fill-rule="evenodd" clip-rule="evenodd" d="M36.3621 25.1201C35.7911 25.6793 34.8819 25.682 34.3069 25.1404C34.2969 25.1309 34.2869 25.1212 34.277 25.1114C33.6996 24.5364 33.6996 23.6049 34.277 23.0299C35.3887 21.9228 36.9106 21.9501 38.2318 22.151C38.4319 22.1814 38.6274 22.2158 38.8161 22.2509L39.2508 22.3315L39.1694 21.8971C38.9016 20.4684 38.6715 18.6543 39.9511 17.3801C41.2313 16.1053 43.0547 16.3348 44.49 16.6014L44.9247 16.6822L44.8433 16.2477C44.5755 14.8189 44.3453 13.0048 45.6249 11.7307C46.9051 10.4558 48.7288 10.6853 50.1638 10.9519L50.5985 11.0326L50.5171 10.5981C50.2493 9.16942 50.0192 7.35527 51.2988 6.08116C52.5791 4.80644 54.4026 5.03578 55.8376 5.30243L56.2723 5.38322L56.1908 4.94869C55.9231 3.51999 55.693 1.70584 56.9726 0.43172C57.5507 -0.143917 58.4885 -0.143891 59.0665 0.431702C59.641 1.00386 59.644 1.92896 59.0754 2.50436L59.0414 2.53874L59.0198 2.58198C58.9331 2.75568 58.9079 2.95353 58.9082 3.14466C58.9085 3.33814 58.9353 3.54996 58.9725 3.76649C59.0074 3.96983 59.0536 4.18832 59.1004 4.41019L59.1099 4.45538C59.1605 4.69507 59.2117 4.94065 59.2541 5.19021C59.427 6.208 59.4297 7.17339 58.7515 7.84882C58.0803 8.51683 57.1269 8.52082 56.115 8.35436C55.8667 8.31352 55.6217 8.26374 55.3819 8.21418L55.3165 8.20064C55.1013 8.1561 54.8891 8.11216 54.6903 8.07806C54.4717 8.04057 54.2581 8.01287 54.0617 8.00983C53.8674 8.00683 53.6691 8.02738 53.4922 8.10229L53.3796 8.14997L53.3316 8.26242C53.2561 8.43938 53.2354 8.63756 53.2384 8.8316C53.2414 9.02759 53.2693 9.24071 53.307 9.45845C53.3414 9.65685 53.3857 9.86865 53.4306 10.0832L53.444 10.1472C53.4938 10.3859 53.5439 10.6296 53.585 10.8766C53.7524 11.883 53.7486 12.8302 53.0774 13.4985C52.4057 14.1672 51.4538 14.1707 50.443 14.0038C50.1949 13.9628 49.9501 13.9129 49.7104 13.8633L49.648 13.8503C49.4318 13.8055 49.2185 13.7612 49.0187 13.7269C48.8 13.6894 48.586 13.6618 48.3893 13.6588C48.1944 13.6559 47.9958 13.6767 47.8184 13.7518L47.7057 13.7995L47.6577 13.912C47.5822 14.0889 47.5615 14.2871 47.5645 14.4811C47.5675 14.6771 47.5954 14.8903 47.6331 15.108C47.6675 15.3064 47.7118 15.5182 47.7567 15.7328L47.7701 15.7968C47.8199 16.0354 47.87 16.2792 47.9111 16.5261C48.0785 17.5326 48.0747 18.4797 47.4035 19.148C46.7318 19.8167 45.7795 19.8202 44.7684 19.6533C44.5203 19.6124 44.2755 19.5625 44.0358 19.5128L43.9731 19.4998C43.757 19.455 43.5438 19.4108 43.3441 19.3765C43.1254 19.339 42.9115 19.3113 42.7149 19.3084C42.5201 19.3055 42.3216 19.3263 42.1443 19.4014L42.0317 19.4491L41.9837 19.5615C41.9082 19.7385 41.8875 19.9366 41.8905 20.1307C41.8935 20.3266 41.9214 20.5397 41.9591 20.7575C41.9935 20.9558 42.0377 21.1675 42.0826 21.3819L42.0961 21.4462C42.1459 21.6849 42.196 21.9286 42.2371 22.1756C42.4045 23.182 42.4008 24.1292 41.7297 24.7975C41.0506 25.4734 40.0809 25.4699 39.0589 25.2973C38.8083 25.255 38.5618 25.2039 38.321 25.1535L38.2799 25.1449C38.0556 25.0979 37.8347 25.0517 37.6291 25.0168C37.4115 24.9798 37.1987 24.9533 37.0043 24.9533C36.8122 24.9532 36.6138 24.9787 36.4395 25.0652L36.3965 25.0865L36.3621 25.1201Z" fill="url(#paint0_linear_844_1262)"/>
<path fill-rule="evenodd" clip-rule="evenodd" d="M15.727 17.8334C16.1047 16.8309 17.4002 16.5528 18.1599 17.3093L43.377 42.4184C44.1383 43.1763 43.8544 44.4627 42.8501 44.8376L2.50269 59.903C1.31191 60.3478 0.153347 59.1848 0.596666 58.0078L15.727 17.8334ZM25.4304 28.7152L17.6917 21.0096L15.8156 25.9912L15.8118 26.0315C15.0278 34.3121 17.9705 42.6614 23.7371 48.6342L23.8751 48.7772L32.0718 45.7165L31.824 45.3918C28.1779 40.6137 25.9418 34.8357 25.4397 28.8261L25.4304 28.7152ZM12.7755 52.7141L12.9134 52.8701L20.8713 49.8986L20.5819 49.5685C16.9167 45.3886 14.304 40.2068 13.2447 34.4143L13.0481 33.3392L8.31146 45.9163L8.36657 46.0325C9.51886 48.4627 10.9976 50.7035 12.7755 52.7141ZM7.23664 50.1606L6.91336 49.6286L4.511 56.0076L9.96014 53.973L9.69431 53.6456C8.79613 52.5395 7.97551 51.3765 7.23664 50.1606ZM34.8542 44.4598L34.9916 44.6264L39.6597 42.8834L28.9006 32.1704L29.1705 33.234C30.2114 37.3341 32.1511 41.1853 34.8542 44.4598Z" fill="url(#paint1_linear_844_1262)"/>
<path d="M43.9361 32.644C43.358 33.2196 42.4203 33.2196 41.8422 32.644C41.2647 32.0692 41.2648 31.1374 41.8423 30.5625C49.9741 22.4655 58.1851 25.0842 58.488 25.1846C59.264 25.4423 59.6817 26.2767 59.4238 27.0467C59.1657 27.8176 58.3272 28.2357 57.5507 27.978C57.4284 27.9377 50.7578 25.8516 43.9361 32.644Z" fill="url(#paint2_linear_844_1262)"/>
<path d="M35.4674 2.26267C35.5685 2.5651 38.197 10.7385 30.0667 18.834C29.4886 19.4097 28.5507 19.4096 27.9727 18.834C27.3953 18.2592 27.3953 17.3275 27.9727 16.7527C34.7948 9.95985 32.7002 3.31643 32.659 3.19324C32.4011 2.42286 32.8189 1.58871 33.5948 1.33113C34.3712 1.07329 35.2093 1.49169 35.4674 2.26267Z" fill="url(#paint3_linear_844_1262)"/>
<path d="M43.9361 7.53502C43.358 8.11066 42.4202 8.11063 41.8422 7.53504C41.2648 6.9601 41.2648 6.02852 41.8422 5.45358C42.4203 4.87795 43.358 4.87795 43.9361 5.45358C44.5136 6.02852 44.5136 6.96008 43.9361 7.53502Z" fill="url(#paint4_linear_844_1262)"/>
<path d="M26.2841 7.96445C26.8615 8.53939 26.8615 9.47095 26.2841 10.0459C25.7061 10.6215 24.7682 10.6215 24.1901 10.0459C23.6127 9.47094 23.6127 8.53926 24.1901 7.96445C24.7682 7.38883 25.7059 7.38883 26.2841 7.96445Z" fill="url(#paint5_linear_844_1262)"/>
<path d="M51.9289 35.5844C52.5071 35.0088 53.4449 35.0088 54.0229 35.5844C54.6003 36.1593 54.6003 37.0909 54.0229 37.6658C53.4448 38.2415 52.5071 38.2415 51.9289 37.6658C51.3515 37.0909 51.3515 36.1593 51.9289 35.5844Z" fill="url(#paint6_linear_844_1262)"/>
<path d="M56.9777 19.0488C56.9777 19.8609 56.3162 20.5213 55.4977 20.5213C54.6791 20.5213 54.0176 19.8609 54.0176 19.0488C54.0176 18.2368 54.6791 17.5764 55.4977 17.5764C56.3162 17.5764 56.9777 18.2368 56.9777 19.0488Z" fill="url(#paint7_linear_844_1262)"/>
<defs>
<linearGradient id="paint0_linear_844_1262" x1="30" y1="0" x2="30" y2="60" gradientUnits="userSpaceOnUse">
<stop stop-color="#FF00E5"/>
<stop offset="1" stop-color="#7000FF"/>
</linearGradient>
<linearGradient id="paint1_linear_844_1262" x1="30" y1="0" x2="30" y2="60" gradientUnits="userSpaceOnUse">
<stop stop-color="#FF00E5"/>
<stop offset="1" stop-color="#7000FF"/>
</linearGradient>
<linearGradient id="paint2_linear_844_1262" x1="30" y1="0" x2="30" y2="60" gradientUnits="userSpaceOnUse">
<stop stop-color="#FF00E5"/>
<stop offset="1" stop-color="#7000FF"/>
</linearGradient>
<linearGradient id="paint3_linear_844_1262" x1="30" y1="0" x2="30" y2="60" gradientUnits="userSpaceOnUse">
<stop stop-color="#FF00E5"/>
<stop offset="1" stop-color="#7000FF"/>
</linearGradient>
<linearGradient id="paint4_linear_844_1262" x1="30" y1="0" x2="30" y2="60" gradientUnits="userSpaceOnUse">
<stop stop-color="#FF00E5"/>
<stop offset="1" stop-color="#7000FF"/>
</linearGradient>
<linearGradient id="paint5_linear_844_1262" x1="30" y1="0" x2="30" y2="60" gradientUnits="userSpaceOnUse">
<stop stop-color="#FF00E5"/>
<stop offset="1" stop-color="#7000FF"/>
</linearGradient>
<linearGradient id="paint6_linear_844_1262" x1="30" y1="0" x2="30" y2="60" gradientUnits="userSpaceOnUse">
<stop stop-color="#FF00E5"/>
<stop offset="1" stop-color="#7000FF"/>
</linearGradient>
<linearGradient id="paint7_linear_844_1262" x1="30" y1="0" x2="30" y2="60" gradientUnits="userSpaceOnUse">
<stop stop-color="#FF00E5"/>
<stop offset="1" stop-color="#7000FF"/>
</linearGradient>
</defs>
</svg>
