<svg width="60" height="60" viewBox="0 0 60 60" fill="none" xmlns="http://www.w3.org/2000/svg">
<path d="M1.17191 57H58.8281C59.2439 57 59.6285 56.7793 59.8389 56.4201C60.0492 56.0609 60.0538 55.6169 59.851 55.2533C59.4761 54.5817 32.7809 6.75112 31.0228 3.60116C30.8158 3.22997 30.4245 3 30 3C29.5756 3 29.1843 3.22985 28.9771 3.60104C27.7294 5.83653 1.44156 52.9372 0.148979 55.2532C-0.0538727 55.6168 -0.0493024 56.0607 0.161049 56.42C0.371518 56.7793 0.756127 57 1.17191 57ZM9.81238 42.7502C15.4064 46.4674 23.2097 49.9565 30 49.9565C32.2933 49.9565 34.7985 49.5656 37.4464 48.7947C38.0678 48.6137 38.4252 47.9624 38.2446 47.3398C38.064 46.7171 37.4137 46.3591 36.7922 46.5401C34.3571 47.2492 32.0718 47.6087 30 47.6087C23.0154 47.6087 15.1278 43.512 10.9585 40.6967L13.3595 36.3945C16.0669 38.2724 23.4235 42.913 30 42.913C36.5766 42.913 43.9331 38.2724 46.6405 36.3947L49.0403 40.6945C48.3571 41.1536 47.4023 41.7625 46.1983 42.4498C45.636 42.7708 45.4398 43.4877 45.7603 44.0509C46.0808 44.6143 46.7964 44.8107 47.3587 44.4896C48.528 43.8221 49.4781 43.2217 50.1874 42.75L52.4894 46.8744C49.2876 48.9916 39.8074 54.6522 30 54.6522C21.9737 54.6522 13.0855 50.5886 7.50999 46.8754L9.81238 42.7502ZM25.2008 15.1783C26.8419 14.8881 28.4548 14.7391 30 14.7391C31.5453 14.7391 33.1581 14.8881 34.7992 15.1783L37.9314 20.7903C35.1386 19.8906 32.4801 19.4348 30 19.4348C27.52 19.4348 24.8615 19.8906 22.0687 20.7903L25.2008 15.1783ZM20.3167 23.9293C23.7978 22.5053 27.0556 21.7826 30 21.7826C32.9445 21.7826 36.2023 22.5053 39.6833 23.9293L43.6892 31.1068C40.1683 29.0234 34.8705 26.4783 30 26.4783C25.1296 26.4783 19.8318 29.0234 16.3108 31.1068L20.3167 23.9293ZM24.1407 34.6957C24.1407 31.4592 26.7692 28.8261 30 28.8261C33.2309 28.8261 35.8594 31.4592 35.8594 34.6957C35.8594 37.9321 33.2309 40.5652 30 40.5652C26.7692 40.5652 24.1407 37.9321 24.1407 34.6957ZM23.0158 38.9997C19.6786 37.6694 16.6839 35.8043 15.0414 34.6957C16.6839 33.587 19.6786 31.7219 23.0158 30.3916C22.2437 31.6443 21.7969 33.1185 21.7969 34.6957C21.7969 36.2728 22.2437 37.747 23.0158 38.9997ZM36.9843 30.3916C40.3214 31.7219 43.3162 33.587 44.9587 34.6957C43.3162 35.8043 40.3214 37.6694 36.9843 38.9997C37.7564 37.747 38.2032 36.2728 38.2032 34.6957C38.2032 33.1185 37.7564 31.6443 36.9843 30.3916ZM42.2263 54.6522C47.4012 52.7834 51.5917 50.2674 53.6359 48.9285L56.8305 54.6522H42.2263ZM30 6.57938L33.3565 12.5932C32.2167 12.4599 31.0939 12.3913 30 12.3913C28.9062 12.3913 27.7833 12.4597 26.6435 12.5932L30 6.57938ZM6.36425 48.9283C8.43402 50.2845 12.6125 52.7905 17.7668 54.6522H3.1696L6.36425 48.9283Z" fill="url(#paint0_linear_844_1247)"/>
<path d="M46.4062 19.4531C47.0535 19.4531 47.5781 18.9285 47.5781 18.2812V13.5938C47.5781 12.9465 47.0535 12.4219 46.4062 12.4219C45.759 12.4219 45.2344 12.9465 45.2344 13.5938V18.2812C45.2344 18.9285 45.759 19.4531 46.4062 19.4531Z" fill="url(#paint1_linear_844_1247)"/>
<path d="M51.0938 24.1406H55.7812C56.4285 24.1406 56.9531 23.616 56.9531 22.9688C56.9531 22.3215 56.4285 21.7969 55.7812 21.7969H51.0938C50.4465 21.7969 49.9219 22.3215 49.9219 22.9688C49.9219 23.616 50.4465 24.1406 51.0938 24.1406Z" fill="url(#paint2_linear_844_1247)"/>
<path d="M51.9225 19.1099L55.4381 15.5943C55.8957 15.1366 55.8957 14.3946 55.4381 13.9369C54.9805 13.4794 54.2385 13.4794 53.7807 13.9369L50.2651 17.4525C49.8075 17.9101 49.8075 18.6521 50.2651 19.1099C50.7229 19.5676 51.4649 19.5675 51.9225 19.1099Z" fill="url(#paint3_linear_844_1247)"/>
<path d="M15.9375 19.4531C16.5847 19.4531 17.1094 18.9285 17.1094 18.2812V13.5938C17.1094 12.9465 16.5847 12.4219 15.9375 12.4219C15.2903 12.4219 14.7656 12.9465 14.7656 13.5938V18.2812C14.7656 18.9285 15.2903 19.4531 15.9375 19.4531Z" fill="url(#paint4_linear_844_1247)"/>
<path d="M6.5625 24.1406H11.25C11.8972 24.1406 12.4219 23.616 12.4219 22.9688C12.4219 22.3215 11.8972 21.7969 11.25 21.7969H6.5625C5.91527 21.7969 5.39062 22.3215 5.39062 22.9688C5.39062 23.616 5.91527 24.1406 6.5625 24.1406Z" fill="url(#paint5_linear_844_1247)"/>
<path d="M10.4213 19.1099C10.8791 19.5675 11.621 19.5675 12.0787 19.1099C12.5363 18.6523 12.5363 17.9102 12.0787 17.4525L8.5631 13.9369C8.10548 13.4794 7.36345 13.4794 6.90571 13.9369C6.4481 14.3945 6.4481 15.1365 6.90571 15.5943L10.4213 19.1099Z" fill="url(#paint6_linear_844_1247)"/>
<path d="M30 31.1719C28.0615 31.1719 26.4844 32.749 26.4844 34.6875C26.4844 36.626 28.0615 38.2031 30 38.2031C31.9385 38.2031 33.5156 36.626 33.5156 34.6875C33.5156 32.749 31.9385 31.1719 30 31.1719ZM30 35.8594C29.3538 35.8594 28.8281 35.3337 28.8281 34.6875C28.8281 34.0413 29.3538 33.5156 30 33.5156C30.6462 33.5156 31.1719 34.0413 31.1719 34.6875C31.1719 35.3337 30.6462 35.8594 30 35.8594Z" fill="url(#paint7_linear_844_1247)"/>
<path d="M42.0703 46.9922C42.7175 46.9922 43.2422 46.4675 43.2422 45.8203C43.2422 45.1731 42.7175 44.6484 42.0703 44.6484C41.4231 44.6484 40.8984 45.1731 40.8984 45.8203C40.8984 46.4675 41.4231 46.9922 42.0703 46.9922Z" fill="url(#paint8_linear_844_1247)"/>
<defs>
<linearGradient id="paint0_linear_844_1247" x1="30" y1="3" x2="30" y2="57" gradientUnits="userSpaceOnUse">
<stop stop-color="#FF00E5"/>
<stop offset="1" stop-color="#7000FF"/>
</linearGradient>
<linearGradient id="paint1_linear_844_1247" x1="46.4062" y1="12.4219" x2="46.4062" y2="19.4531" gradientUnits="userSpaceOnUse">
<stop stop-color="#FF00E5"/>
<stop offset="1" stop-color="#7000FF"/>
</linearGradient>
<linearGradient id="paint2_linear_844_1247" x1="53.4375" y1="21.7969" x2="53.4375" y2="24.1406" gradientUnits="userSpaceOnUse">
<stop stop-color="#FF00E5"/>
<stop offset="1" stop-color="#7000FF"/>
</linearGradient>
<linearGradient id="paint3_linear_844_1247" x1="52.8516" y1="13.5938" x2="52.8516" y2="19.4531" gradientUnits="userSpaceOnUse">
<stop stop-color="#FF00E5"/>
<stop offset="1" stop-color="#7000FF"/>
</linearGradient>
<linearGradient id="paint4_linear_844_1247" x1="15.9375" y1="12.4219" x2="15.9375" y2="19.4531" gradientUnits="userSpaceOnUse">
<stop stop-color="#FF00E5"/>
<stop offset="1" stop-color="#7000FF"/>
</linearGradient>
<linearGradient id="paint5_linear_844_1247" x1="8.90625" y1="21.7969" x2="8.90625" y2="24.1406" gradientUnits="userSpaceOnUse">
<stop stop-color="#FF00E5"/>
<stop offset="1" stop-color="#7000FF"/>
</linearGradient>
<linearGradient id="paint6_linear_844_1247" x1="9.49222" y1="13.5938" x2="9.49222" y2="19.4531" gradientUnits="userSpaceOnUse">
<stop stop-color="#FF00E5"/>
<stop offset="1" stop-color="#7000FF"/>
</linearGradient>
<linearGradient id="paint7_linear_844_1247" x1="30" y1="31.1719" x2="30" y2="38.2031" gradientUnits="userSpaceOnUse">
<stop stop-color="#FF00E5"/>
<stop offset="1" stop-color="#7000FF"/>
</linearGradient>
<linearGradient id="paint8_linear_844_1247" x1="42.0703" y1="44.6484" x2="42.0703" y2="46.9922" gradientUnits="userSpaceOnUse">
<stop stop-color="#FF00E5"/>
<stop offset="1" stop-color="#7000FF"/>
</linearGradient>
</defs>
</svg>
