<svg width="60" height="54" viewBox="0 0 60 54" fill="none" xmlns="http://www.w3.org/2000/svg">
<path d="M1.17191 54H58.8281C59.2439 54 59.6285 53.7793 59.8389 53.4201C60.0492 53.0609 60.0538 52.6169 59.851 52.2533C59.4761 51.5817 32.7809 3.75112 31.0228 0.601161C30.8158 0.22997 30.4245 0 30 0C29.5756 0 29.1843 0.229852 28.9771 0.601044C27.7294 2.83653 1.44156 49.9372 0.148979 52.2532C-0.0538727 52.6168 -0.0493024 53.0608 0.161049 53.42C0.371518 53.7793 0.756127 54 1.17191 54V54ZM9.81238 39.7502C15.4064 43.4674 23.2097 46.9565 30 46.9565C32.2933 46.9565 34.7985 46.5656 37.4464 45.7947C38.0678 45.6137 38.4252 44.9624 38.2446 44.3398C38.064 43.7171 37.4137 43.3591 36.7922 43.5401C34.3571 44.2492 32.0718 44.6087 30 44.6087C23.0154 44.6087 15.1278 40.512 10.9585 37.6967L13.3595 33.3945C16.0669 35.2724 23.4235 39.913 30 39.913C36.5766 39.913 43.9331 35.2724 46.6405 33.3947L49.0403 37.6945C48.3571 38.1536 47.4023 38.7625 46.1983 39.4498C45.636 39.7708 45.4398 40.4877 45.7603 41.0509C46.0808 41.6143 46.7964 41.8107 47.3587 41.4896C48.528 40.8221 49.4781 40.2217 50.1874 39.75L52.4894 43.8744C49.2876 45.9916 39.8074 51.6522 30 51.6522C21.9737 51.6522 13.0855 47.5886 7.50999 43.8754L9.81238 39.7502ZM25.2008 12.1783C26.8419 11.8881 28.4548 11.7391 30 11.7391C31.5453 11.7391 33.1581 11.8881 34.7992 12.1783L37.9314 17.7903C35.1386 16.8906 32.4801 16.4348 30 16.4348C27.52 16.4348 24.8615 16.8906 22.0687 17.7903L25.2008 12.1783ZM20.3167 20.9293C23.7978 19.5053 27.0556 18.7826 30 18.7826C32.9445 18.7826 36.2023 19.5053 39.6833 20.9293L43.6892 28.1068C40.1683 26.0234 34.8705 23.4783 30 23.4783C25.1296 23.4783 19.8318 26.0234 16.3108 28.1068L20.3167 20.9293ZM24.1407 31.6957C24.1407 28.4592 26.7692 25.8261 30 25.8261C33.2309 25.8261 35.8594 28.4592 35.8594 31.6957C35.8594 34.9321 33.2309 37.5652 30 37.5652C26.7692 37.5652 24.1407 34.9321 24.1407 31.6957ZM23.0158 35.9997C19.6786 34.6694 16.6839 32.8043 15.0414 31.6957C16.6839 30.587 19.6786 28.7219 23.0158 27.3916C22.2437 28.6443 21.7969 30.1185 21.7969 31.6957C21.7969 33.2728 22.2437 34.747 23.0158 35.9997ZM36.9843 27.3916C40.3214 28.7219 43.3162 30.587 44.9587 31.6957C43.3162 32.8043 40.3214 34.6694 36.9843 35.9997C37.7564 34.747 38.2031 33.2728 38.2031 31.6957C38.2031 30.1185 37.7564 28.6443 36.9843 27.3916ZM42.2263 51.6522C47.4012 49.7834 51.5917 47.2674 53.6359 45.9285L56.8305 51.6522H42.2263ZM30 3.57938L33.3565 9.59322C32.2167 9.45986 31.0939 9.3913 30 9.3913C28.9062 9.3913 27.7833 9.45974 26.6435 9.59322L30 3.57938ZM6.36425 45.9283C8.43402 47.2845 12.6125 49.7905 17.7668 51.6522H3.1696L6.36425 45.9283Z" fill="url(#paint0_linear_844_1248)"/>
<defs>
<linearGradient id="paint0_linear_844_1248" x1="30" y1="0" x2="30" y2="54" gradientUnits="userSpaceOnUse">
<stop stop-color="#FF00E5"/>
<stop offset="1" stop-color="#7000FF"/>
</linearGradient>
</defs>
</svg>
