<svg width="60" height="61" viewBox="0 0 60 61" fill="none" xmlns="http://www.w3.org/2000/svg">
<path d="M30 0.00366211C24.0666 0.00366211 18.2664 1.76313 13.3329 5.05957C8.39943 8.35601 4.55426 13.0414 2.28363 18.5232C0.0129986 24.0049 -0.581101 30.0369 0.576455 35.8564C1.73401 41.6758 4.59123 47.0213 8.78681 51.2169C12.9824 55.4124 18.3279 58.2697 24.1473 59.4272C29.9667 60.5848 35.9987 59.9907 41.4805 57.72C46.9623 55.4494 51.6477 51.6042 54.9441 46.6708C58.2405 41.7373 60 35.9371 60 30.0037C59.9909 22.05 56.8273 14.4246 51.2032 8.80051C45.579 3.17639 37.9537 0.0127601 30 0.00366211ZM30 57.5037C24.561 57.5037 19.2442 55.8908 14.7218 52.8691C10.1995 49.8473 6.67473 45.5524 4.59333 40.5275C2.51192 35.5025 1.96732 29.9732 3.02842 24.6387C4.08951 19.3042 6.70863 14.4042 10.5546 10.5582C14.4005 6.71228 19.3006 4.09316 24.635 3.03207C29.9695 1.97097 35.4988 2.51556 40.5238 4.59697C45.5488 6.67838 49.8437 10.2031 52.8654 14.7255C55.8872 19.2478 57.5 24.5647 57.5 30.0037C57.4918 37.2946 54.5918 44.2845 49.4363 49.44C44.2809 54.5955 37.2909 57.4954 30 57.5037Z" fill="url(#paint0_linear_844_1092)"/>
<path d="M30 5.81011C25.215 5.81011 20.5374 7.22904 16.5588 9.88746C12.5802 12.5459 9.47924 16.3244 7.64809 20.7452C5.81693 25.166 5.33782 30.0305 6.27133 34.7236C7.20485 39.4167 9.50906 43.7275 12.8926 47.1111C16.2761 50.4946 20.587 52.7988 25.2801 53.7323C29.9732 54.6658 34.8377 54.1867 39.2585 52.3556C43.6793 50.5244 47.4578 47.4235 50.1162 43.4449C52.7746 39.4663 54.1935 34.7887 54.1935 30.0037C54.1863 23.5894 51.635 17.4399 47.0994 12.9043C42.5638 8.36869 36.4143 5.8174 30 5.81011ZM30 51.6505C25.7187 51.6505 21.5335 50.3809 17.9737 48.0024C14.4139 45.6238 11.6393 42.243 10.0009 38.2875C8.36252 34.3321 7.93384 29.9796 8.76909 25.7806C9.60434 21.5815 11.666 17.7244 14.6934 14.697C17.7207 11.6697 21.5778 9.60799 25.7769 8.77274C29.976 7.93749 34.3285 8.36617 38.2839 10.0046C42.2393 11.643 45.6201 14.4175 47.9987 17.9773C50.3773 21.5371 51.6469 25.7223 51.6469 30.0037C51.6405 35.7428 49.3578 41.245 45.2996 45.3032C41.2414 49.3614 35.7391 51.6441 30 51.6505Z" fill="url(#paint1_linear_844_1092)"/>
<path d="M38.585 20.784C38.5451 20.6196 38.4738 20.4652 38.3751 20.3297L30.9851 10.1614C30.8655 10.0112 30.7151 9.89027 30.5448 9.80721C30.3744 9.72416 30.1884 9.68108 30 9.68108C29.8116 9.68108 29.6256 9.72416 29.4552 9.80721C29.2849 9.89027 29.1345 10.0112 29.0149 10.1614L21.6249 20.3297C21.5262 20.4652 21.4549 20.6196 21.415 20.784L16.4883 41.1212C16.4244 41.3854 16.4444 41.6639 16.5454 41.9155C16.6464 42.1671 16.8231 42.3786 17.0494 42.5188L29.3661 50.145C29.5576 50.2636 29.7767 50.3262 30 50.3262C30.2233 50.3262 30.4424 50.2636 30.6339 50.145L42.9506 42.5188C43.1769 42.3786 43.3536 42.1671 43.4546 41.9155C43.5556 41.6639 43.5756 41.3854 43.5117 41.1212L38.585 20.784ZM31.2317 14.7372L36.0315 21.3419L34.4833 26.6677L31.2317 19.5374V14.7372ZM28.7683 19.5374L25.5168 26.6677L23.9686 21.3419L28.7683 14.7372V19.5374ZM30 22.8066L33.4233 30.3135L30.5615 40.158H29.4385L26.5767 30.3135L30 22.8066ZM34.9941 33.758L37.9127 40.158H33.1335L34.9941 33.758ZM26.8665 40.158H22.0873L25.0059 33.758L26.8665 40.158ZM27.6055 42.7L28.8074 46.8347L22.1303 42.7H27.6055ZM32.3946 42.7H37.8697L31.1926 46.8347L32.3946 42.7ZM40.8574 40.6459L36.0539 30.1122L37.2819 25.8879L40.8574 40.6459ZM22.718 25.8879L23.946 30.1121L19.1425 40.6458L22.718 25.8879Z" fill="url(#paint2_linear_844_1092)"/>
<defs>
<linearGradient id="paint0_linear_844_1092" x1="30" y1="0.00366211" x2="30" y2="60.0037" gradientUnits="userSpaceOnUse">
<stop stop-color="#FF00E5"/>
<stop offset="1" stop-color="#7000FF"/>
</linearGradient>
<linearGradient id="paint1_linear_844_1092" x1="30" y1="0.00366211" x2="30" y2="60.0037" gradientUnits="userSpaceOnUse">
<stop stop-color="#FF00E5"/>
<stop offset="1" stop-color="#7000FF"/>
</linearGradient>
<linearGradient id="paint2_linear_844_1092" x1="30" y1="0.00366211" x2="30" y2="60.0037" gradientUnits="userSpaceOnUse">
<stop stop-color="#FF00E5"/>
<stop offset="1" stop-color="#7000FF"/>
</linearGradient>
</defs>
</svg>
