<svg width="32" height="32" viewBox="0 0 32 32" fill="none" xmlns="http://www.w3.org/2000/svg">
<path d="M31.5435 1.23132C31.4586 0.849213 31.1614 0.594476 30.7793 0.467107C29.1235 0.127458 27.3828 8.89649e-05 25.6845 0.0425453C19.3161 0.0425459 15.495 3.43904 12.6505 7.93941L6.23957 7.93941C5.13571 7.98186 4.15922 8.61871 3.60729 9.55274L0.550439 15.6664C0.465526 15.8787 0.42307 16.091 0.380614 16.3457C0.380614 17.1524 1.05991 17.8317 1.86658 17.8317L8.27747 17.8317L6.91887 19.1903C6.15466 19.9545 6.15466 21.1858 6.91887 21.9924L10.0606 25.1342C10.8248 25.8984 12.0561 25.8984 12.8627 25.1342L14.2638 23.7331L14.2638 30.144C14.2638 30.9507 14.9006 31.63 15.7498 31.63C15.962 31.63 16.1743 31.5875 16.3866 31.5026L22.4579 28.4458C23.4343 27.8938 24.0287 26.9173 24.0712 25.8135L24.0712 19.3177C28.5716 16.4731 31.9681 12.652 31.9681 6.32607C32.0105 4.62782 31.8831 2.92957 31.5435 1.23132V1.23132ZM24.0712 10.4019C22.7126 10.4019 21.6087 9.298 21.6087 7.93941C21.6087 6.58081 22.7126 5.47694 24.0712 5.47694C25.4298 5.47694 26.5337 6.58081 26.5337 7.9394C26.5337 9.298 25.4298 10.4019 24.0712 10.4019Z" fill="url(#paint0_linear_846_1723)"/>
<defs>
<linearGradient id="paint0_linear_846_1723" x1="16.1783" y1="0.0346666" x2="16.1783" y2="31.63" gradientUnits="userSpaceOnUse">
<stop stop-color="#FF00E5"/>
<stop offset="1" stop-color="#7000FF"/>
</linearGradient>
</defs>
</svg>
