<svg width="60" height="60" viewBox="0 0 60 60" fill="none" xmlns="http://www.w3.org/2000/svg">
<path d="M5.27344 35.1562C7.565 35.1562 9.51874 33.6864 10.2448 31.6406H17.8212C18.5944 37.0212 22.8616 41.2885 28.2422 42.0616V46.16C25.2132 46.9423 22.9688 49.6985 22.9688 52.9688C22.9688 56.846 26.1227 60 30 60C33.8773 60 37.0312 56.846 37.0312 52.9688C37.0312 49.6985 34.7868 46.9423 31.7578 46.16V42.0616C34.8756 41.6135 37.6195 39.993 39.5265 37.662L46.0661 42.8952C45.9824 43.2756 45.9375 43.6661 45.9375 44.0625C45.9375 46.9702 48.3032 49.3359 51.2109 49.3359C54.1187 49.3359 56.4844 46.9702 56.4844 44.0625C56.4844 42.6613 55.9456 41.3264 54.9678 40.3033C53.9616 39.2514 52.6277 38.6719 51.2109 38.6719C50.0015 38.6719 48.853 39.0953 47.9169 39.8735L41.3548 34.6225C41.9664 33.1627 42.3047 31.5614 42.3047 29.8828C42.3047 27.1271 41.3942 24.5796 39.8579 22.5266L46.3586 16.1124C47.7502 17.0375 49.4183 17.5781 51.2109 17.5781C56.0573 17.5781 60 13.6354 60 8.78906C60 3.94272 56.0573 0 51.2109 0C46.3646 0 42.4219 3.94272 42.4219 8.78906C42.4219 10.5739 42.9579 12.2351 43.8757 13.623L37.3737 20.0386C35.7614 18.8278 33.8434 18.0038 31.7578 17.7045V10.2448C33.8036 9.51874 35.2734 7.565 35.2734 5.27344C35.2734 2.36572 32.9077 0 30 0C27.0923 0 24.7266 2.36572 24.7266 5.27344C24.7266 7.565 26.196 9.51874 28.2422 10.2448V17.704C26.1603 18.0034 24.2455 18.8246 22.6346 20.0317L16.7184 14.1156C17.3383 13.0687 17.6953 11.8488 17.6953 10.5469C17.6953 6.66962 14.5413 3.51562 10.6641 3.51562C6.7868 3.51562 3.63281 6.66962 3.63281 10.5469C3.63281 14.4241 6.7868 17.5781 10.6641 17.5781C11.9664 17.5781 13.1859 17.2211 14.2328 16.6017L20.1489 22.5179C18.9418 24.1283 18.1206 26.0435 17.8212 28.125H10.2448C9.51874 26.0793 7.565 24.6094 5.27344 24.6094C2.36572 24.6094 0 26.9751 0 29.8828C0 32.7905 2.36572 35.1562 5.27344 35.1562ZM51.2109 42.1875C52.1471 42.1875 52.9688 43.0637 52.9688 44.0625C52.9688 45.0316 52.18 45.8203 51.2109 45.8203C50.2419 45.8203 49.4531 45.0316 49.4531 44.0625C49.4531 43.0925 50.2528 42.1875 51.2109 42.1875ZM33.5156 52.9688C33.5156 54.9074 31.9386 56.4844 30 56.4844C28.0614 56.4844 26.4844 54.9074 26.4844 52.9688C26.4844 51.0301 28.0614 49.4531 30 49.4531C31.9386 49.4531 33.5156 51.0301 33.5156 52.9688ZM30 38.6719C25.1537 38.6719 21.2109 34.7292 21.2109 29.8828C21.2109 25.0365 25.1537 21.0938 30 21.0938C34.8463 21.0938 38.7891 25.0365 38.7891 29.8828C38.7891 34.7292 34.8463 38.6719 30 38.6719ZM51.2109 3.51562C54.1187 3.51562 56.4844 5.88135 56.4844 8.78906C56.4844 11.6968 54.1187 14.0625 51.2109 14.0625C48.3032 14.0625 45.9375 11.6968 45.9375 8.78906C45.9375 5.88135 48.3032 3.51562 51.2109 3.51562ZM30 3.51562C30.9691 3.51562 31.7578 4.30435 31.7578 5.27344C31.7578 6.24252 30.9691 7.03125 30 7.03125C29.0309 7.03125 28.2422 6.24252 28.2422 5.27344C28.2422 4.30435 29.0309 3.51562 30 3.51562ZM7.14844 10.5469C7.14844 8.60825 8.72543 7.03125 10.6641 7.03125C12.6027 7.03125 14.1797 8.60825 14.1797 10.5469C14.1797 12.4855 12.6027 14.0625 10.6641 14.0625C8.72543 14.0625 7.14844 12.4855 7.14844 10.5469ZM5.27344 28.125C6.24252 28.125 7.03125 28.9137 7.03125 29.8828C7.03125 30.8519 6.24252 31.6406 5.27344 31.6406C4.30435 31.6406 3.51562 30.8519 3.51562 29.8828C3.51562 28.9137 4.30435 28.125 5.27344 28.125Z" fill="url(#paint0_linear_844_1258)"/>
<path fill-rule="evenodd" clip-rule="evenodd" d="M35.4716 29.9999L35.4716 29.9987C35.4699 28.5485 34.8931 27.1581 33.8676 26.1326C32.8421 25.1072 31.4506 24.5303 30.0004 24.5287C28.9183 24.5287 27.8605 24.8495 26.9607 25.4507C26.061 26.0519 25.3597 26.9064 24.9456 27.9061C24.5315 28.9059 24.4232 30.006 24.6343 31.0673C24.8454 32.1286 25.3665 33.1035 26.1316 33.8686C26.8968 34.6338 27.8717 35.1549 28.933 35.366C29.9943 35.5771 31.0944 35.4687 32.0941 35.0546C33.0939 34.6405 33.9483 33.9393 34.5495 33.0395C35.1507 32.1398 35.4716 31.082 35.4716 29.9999ZM32.1208 32.1203C32.6834 31.5577 32.9999 30.7949 33.0009 29.9992C33.0008 29.406 32.8248 28.8261 32.4953 28.3329C32.1655 27.8394 31.6969 27.4548 31.1486 27.2277C30.6004 27.0006 29.997 26.9412 29.415 27.057C28.8329 27.1728 28.2983 27.4585 27.8787 27.8782C27.459 28.2978 27.1732 28.8325 27.0575 29.4145C26.9417 29.9966 27.0011 30.5999 27.2282 31.1482C27.4553 31.6964 27.8399 32.1651 28.3334 32.4948C28.8266 32.8243 29.4065 33.0003 29.9997 33.0005C30.7954 32.9994 31.5582 32.6829 32.1208 32.1203Z" fill="url(#paint1_linear_844_1258)"/>
<defs>
<linearGradient id="paint0_linear_844_1258" x1="30" y1="0" x2="30" y2="60" gradientUnits="userSpaceOnUse">
<stop stop-color="#FF00E5"/>
<stop offset="1" stop-color="#7000FF"/>
</linearGradient>
<linearGradient id="paint1_linear_844_1258" x1="30" y1="0" x2="30" y2="60" gradientUnits="userSpaceOnUse">
<stop stop-color="#FF00E5"/>
<stop offset="1" stop-color="#7000FF"/>
</linearGradient>
</defs>
</svg>
