<svg width="60" height="57" viewBox="0 0 60 57" fill="none" xmlns="http://www.w3.org/2000/svg">
<path d="M45.9622 14.7779L44.0031 6.67525L43.9975 6.66144C43.8196 6.22217 44.0306 5.7219 44.4677 5.54378C44.9046 5.36577 45.4031 5.57648 45.5809 6.01549L49.5971 15.3224L49.5984 15.3254L49.602 15.3335L49.6136 15.3599C49.6239 15.3833 49.639 15.418 49.6584 15.4632C49.697 15.5534 49.7524 15.685 49.8189 15.8497C49.952 16.1792 50.1294 16.6404 50.3067 17.1669C50.6636 18.2263 51.0118 19.5265 51.0118 20.5492C51.0118 21.5435 50.6281 22.0238 50.2086 22.2699C49.7703 22.5271 49.2566 22.5502 48.9704 22.5502C48.6985 22.5502 48.2069 22.4937 47.7895 22.219C47.3861 21.9536 47.026 21.4683 47.026 20.5492C47.026 19.5419 46.7568 18.0923 46.4926 16.9086C46.3599 16.3137 46.2272 15.7807 46.1276 15.3964C46.0779 15.2043 46.0364 15.0492 46.0073 14.942C45.9928 14.8884 45.9813 14.8468 45.9735 14.8185L45.9645 14.7863L45.9622 14.7779Z" fill="url(#paint0_linear_844_1260)"/>
<path d="M31.8322 6.81133L31.8321 6.81838L31.8311 7.03862C31.8305 7.1811 31.8299 7.38843 31.8297 7.64802C31.8292 8.16718 31.8303 8.89541 31.8364 9.73184C31.8486 11.4041 31.8808 13.5111 31.9612 15.2445C31.9872 15.8061 32.0224 16.2362 32.055 16.6342C32.1221 17.4548 32.1781 18.1385 32.1195 19.5547C32.0779 20.5607 31.6878 21.2975 31.2451 21.779C31.0229 22.0206 30.7885 22.1968 30.5796 22.3103C30.3653 22.4267 30.1965 22.4671 30.1027 22.4632C30.0119 22.4594 29.8346 22.3979 29.6053 22.2483C29.3836 22.1037 29.1354 21.8911 28.9056 21.6191C28.4457 21.075 28.0704 20.3075 28.1084 19.3878C28.1385 18.6614 28.1495 18.0897 28.1595 17.5743C28.1767 16.6835 28.1906 15.9607 28.2938 14.8975C28.4453 13.336 28.5926 11.2838 28.7019 9.62358C28.7566 8.79314 28.8018 8.06017 28.8334 7.53479C28.8492 7.27209 28.8615 7.06128 28.8699 6.91613L28.8829 6.69135L28.883 6.68835C28.8935 6.43377 29.0559 6.21838 29.3366 6.0587C29.6177 5.89881 29.9912 5.81291 30.3475 5.81692C30.7049 5.82093 31.0927 5.96219 31.3872 6.17017C31.6922 6.38562 31.8397 6.62862 31.8322 6.81133Z" fill="url(#paint1_linear_844_1260)"/>
<path d="M16.0024 6.66142L15.9969 6.67523L14.0375 14.7787L14.0354 14.7862L14.0265 14.8185C14.0186 14.8468 14.0072 14.8884 13.9926 14.942C13.9636 15.0491 13.9221 15.2042 13.8723 15.3964C13.7728 15.7807 13.6401 16.3137 13.5073 16.9085C13.2432 18.0923 12.9739 19.5419 12.9739 20.5492C12.9739 21.4683 12.6139 21.9536 12.2105 22.219C11.793 22.4936 11.3014 22.5501 11.0295 22.5501C10.7433 22.5501 10.2297 22.5271 9.79132 22.2699C9.37188 22.0238 8.98813 21.5435 8.98813 20.5492C8.98813 19.5265 9.33636 18.2263 9.6932 17.1669C9.87055 16.6404 10.048 16.1792 10.1811 15.8497C10.2476 15.685 10.3029 15.5534 10.3416 15.4631C10.3609 15.418 10.376 15.3833 10.3863 15.3599L10.3979 15.3335L10.4008 15.327L10.4017 15.325L14.4173 6.01965L14.419 6.01545C14.5968 5.57644 15.0953 5.36575 15.5322 5.54376C15.9694 5.72187 16.1804 6.22215 16.0024 6.66142Z" fill="url(#paint2_linear_844_1260)"/>
<path d="M47.0994 35.2132V41.674C47.0994 42.0143 46.776 42.3335 46.3199 42.3335H41.9745C41.5184 42.3335 41.1949 42.0143 41.1949 41.674V35.2132C41.1949 34.873 41.5184 34.5538 41.9745 34.5538H46.3199C46.776 34.5538 47.0994 34.873 47.0994 35.2132Z" fill="url(#paint3_linear_844_1260)"/>
<path fill-rule="evenodd" clip-rule="evenodd" d="M57.255 24.5803C59.0126 22.593 59.9884 20.0317 60 17.3752C59.9998 17.1065 59.9266 16.8429 59.7883 16.6129L59.7863 16.6097L51.2057 2.26987C50.7903 1.57916 50.2044 1.0075 49.5047 0.609948C48.8054 0.212616 48.0159 0.00257618 47.2123 0H12.7852C11.1644 0 9.6296 0.871988 8.79572 2.26742L0.211733 16.6129C0.0733183 16.843 0.000105818 17.1067 0 17.3755C0.0116794 20.0319 0.987514 22.5931 2.74503 24.5803L3.16798 25.0585V52.3296C3.16798 54.9045 5.2581 57 7.82419 57H52.1758C54.7419 57 56.832 54.9045 56.832 52.3296V25.0585L57.255 24.5803ZM41.1359 17.6784L41.1348 17.6688L40.6746 15.6331L38.152 2.98627H48.1661L56.751 17.3399L56.9636 18.357L56.9593 18.3905C56.712 20.3304 55.7689 22.1137 54.306 23.4071C52.8431 24.7005 50.9606 25.4155 49.0102 25.4182L48.9928 25.4182L48.9757 25.4153C45.4247 24.8028 43.459 22.8658 42.3859 21.0786C41.8507 20.1874 41.5381 19.335 41.3592 18.7052C41.2697 18.3901 41.2135 18.1301 41.1795 17.9479C41.1625 17.8568 41.1511 17.785 41.1438 17.7356C41.1402 17.7108 41.1376 17.6917 41.1359 17.6784ZM35.1158 2.98627H24.8812L22.0011 17.4468L22.0074 17.641C22.1475 21.944 25.661 25.4182 30 25.4182C34.339 25.4182 37.8525 21.944 37.9926 17.641L37.9934 17.6181L35.1158 2.98627ZM21.8475 2.98627H11.8339L2.96692 17.8115L3.04073 18.3905C3.288 20.3304 4.23113 22.1137 5.69401 23.4071C7.15691 24.7005 9.03973 25.4155 10.9901 25.4182H10.9922C15.3868 25.4182 18.9625 21.859 19.0074 17.4632L19.0903 17.1537C19.1051 17.1011 19.0689 17.2453 19.0903 17.1537L19.3675 15.4357L21.8475 2.98627ZM14.7218 38.8035V54.0137H30.7532V38.8035C30.7532 37.5229 29.718 36.4839 28.4399 36.4839H17.0352C15.7571 36.4839 14.7218 37.5229 14.7218 38.8035ZM33.7297 38.1681V54.0137H53.8555V27.4623L51.7552 28.007C50.8199 28.2495 49.9196 28.4045 49.007 28.4045C47.4473 28.4053 45.9053 28.0723 44.4842 27.4275C43.0631 26.7828 41.7955 25.8413 40.7662 24.6659L39.5059 23.2267L38.2434 24.664C36.2262 26.9603 33.2762 28.4045 30 28.4045C26.7238 28.4045 23.7738 26.9603 21.7566 24.664L20.4941 23.2267L19.2338 24.6659C18.2045 25.8413 16.9369 26.7828 15.5158 27.4275C14.0947 28.0722 12.5519 28.4053 10.9922 28.4045C10.0795 28.4045 9.18014 28.2495 8.24481 28.007L6.14446 27.4623V54.0137H11.7453V38.1681C11.7453 35.5932 13.8355 33.4977 16.4016 33.4977H29.0735C31.6396 33.4977 33.7297 35.5932 33.7297 38.1681Z" fill="url(#paint4_linear_844_1260)"/>
<defs>
<linearGradient id="paint0_linear_844_1260" x1="30" y1="0" x2="30" y2="57" gradientUnits="userSpaceOnUse">
<stop stop-color="#FF00E5"/>
<stop offset="1" stop-color="#7000FF"/>
</linearGradient>
<linearGradient id="paint1_linear_844_1260" x1="30" y1="0" x2="30" y2="57" gradientUnits="userSpaceOnUse">
<stop stop-color="#FF00E5"/>
<stop offset="1" stop-color="#7000FF"/>
</linearGradient>
<linearGradient id="paint2_linear_844_1260" x1="30" y1="0" x2="30" y2="57" gradientUnits="userSpaceOnUse">
<stop stop-color="#FF00E5"/>
<stop offset="1" stop-color="#7000FF"/>
</linearGradient>
<linearGradient id="paint3_linear_844_1260" x1="30" y1="0" x2="30" y2="57" gradientUnits="userSpaceOnUse">
<stop stop-color="#FF00E5"/>
<stop offset="1" stop-color="#7000FF"/>
</linearGradient>
<linearGradient id="paint4_linear_844_1260" x1="30" y1="0" x2="30" y2="57" gradientUnits="userSpaceOnUse">
<stop stop-color="#FF00E5"/>
<stop offset="1" stop-color="#7000FF"/>
</linearGradient>
</defs>
</svg>
